<?xml version="1.0" encoding="UTF-8" standalone="no"?>
<!-- Created with Inkscape (http://www.inkscape.org/) -->

<svg
   xmlns:dc="http://purl.org/dc/elements/1.1/"
   xmlns:cc="http://creativecommons.org/ns#"
   xmlns:rdf="http://www.w3.org/1999/02/22-rdf-syntax-ns#"
   xmlns:svg="http://www.w3.org/2000/svg"
   xmlns="http://www.w3.org/2000/svg"
   xmlns:sodipodi="http://sodipodi.sourceforge.net/DTD/sodipodi-0.dtd"
   xmlns:inkscape="http://www.inkscape.org/namespaces/inkscape"
   width="512"
   height="512"
   viewBox="0 0 135.46666 135.46667"
   version="1.1"
   id="svg8"
   sodipodi:docname="icon.svg"
   inkscape:version="0.92.1 r15371"
   inkscape:export-filename="/home/galien/dev/projs/PlaybackSensor/store/icon.svg.png"
   inkscape:export-xdpi="102.05215"
   inkscape:export-ydpi="102.05215">
  <defs
     id="defs2" />
  <sodipodi:namedview
     id="base"
     pagecolor="#ffffff"
     bordercolor="#666666"
     borderopacity="1.0"
     inkscape:pageopacity="0.0"
     inkscape:pageshadow="2"
     inkscape:zoom="1.4"
     inkscape:cx="301.20366"
     inkscape:cy="169.11069"
     inkscape:document-units="mm"
     inkscape:current-layer="layer1"
     showgrid="false"
     inkscape:window-width="3840"
     inkscape:window-height="2031"
     inkscape:window-x="0"
     inkscape:window-y="55"
     inkscape:window-maximized="1"
     units="px">
    <inkscape:grid
       type="xygrid"
       id="grid4788" />
  </sodipodi:namedview>
  <metadata
     id="metadata5">
    <rdf:RDF>
      <cc:Work
         rdf:about="">
        <dc:format>image/svg+xml</dc:format>
        <dc:type
           rdf:resource="http://purl.org/dc/dcmitype/StillImage" />
        <dc:title></dc:title>
      </cc:Work>
    </rdf:RDF>
  </metadata>
  <g
     inkscape:label="Layer 1"
     inkscape:groupmode="layer"
     id="layer1"
     style="opacity:1"
     transform="translate(0,-161.53332)">
    <g
       id="g3864"
       transform="matrix(1.3495592,0,0,1.4541298,57.751474,152.77432)">
      <polygon
         id="polygon3806"
         points="0,8.513 27,27.5 0,46.487 0,27.845 "
         style="fill:#424a60" />
      <polygon
         id="polygon3808"
         points="28,8.5 55,27.5 28,46.5 28,27.5 "
         style="fill:#424a60" />
      <g
         id="g3810" />
      <g
         id="g3812" />
      <g
         id="g3814" />
      <g
         id="g3816" />
      <g
         id="g3818" />
      <g
         id="g3820" />
      <g
         id="g3822" />
      <g
         id="g3824" />
      <g
         id="g3826" />
      <g
         id="g3828" />
      <g
         id="g3830" />
      <g
         id="g3832" />
      <g
         id="g3834" />
      <g
         id="g3836" />
      <g
         id="g3838" />
    </g>
    <a
       id="a3924"
       transform="matrix(0.81098259,0,0,0.92043389,-15.976042,157.51847)">
      <g
         transform="matrix(-0.26458333,0,0,0.26458333,156.95531,14.01414)"
         id="g3804">
        <g
           id="g3684">
          <g
             id="g3682">
            <path
               inkscape:connector-curvature="0"
               d="M 402.034,77.436 C 388.486,48.9 369.347,23.147 345.899,1.937 c -3.071,-2.777 -7.814,-2.541 -10.595,0.531 -2.778,3.072 -2.541,7.815 0.531,10.595 21.976,19.878 39.93,44.022 52.647,70.806 1.79,3.767 6.277,5.324 9.993,3.559 3.742,-1.775 5.335,-6.249 3.559,-9.992 z"
               id="path3680" />
          </g>
        </g>
        <g
           id="g3690">
          <g
             id="g3688">
            <path
               inkscape:connector-curvature="0"
               d="m 359.714,88.616 c -9.581,-18.225 -21.992,-34.925 -36.707,-49.369 -2.957,-2.9 -7.706,-2.858 -10.609,0.098 -2.901,2.956 -2.857,7.705 0.099,10.607 13.592,13.341 25.067,28.771 33.938,45.645 1.342,2.553 3.948,4.012 6.647,4.012 5.564,0 9.279,-5.958 6.632,-10.993 z"
               id="path3686" />
          </g>
        </g>
        <g
           id="g3696">
          <g
             id="g3694">
            <path
               inkscape:connector-curvature="0"
               d="m 72.529,318.782 c -10.942,-9.899 -20.969,-20.941 -29.8,-32.818 -8.834,-11.881 -16.52,-24.662 -22.845,-37.987 -1.776,-3.741 -6.25,-5.336 -9.993,-3.559 -3.741,1.776 -5.336,6.251 -3.559,9.993 13.548,28.537 32.686,54.286 56.134,75.497 1.436,1.299 3.234,1.938 5.029,1.938 6.807,-10e-4 10.144,-8.443 5.034,-13.064 z"
               id="path3692" />
          </g>
        </g>
        <g
           id="g3702">
          <g
             id="g3700">
            <path
               inkscape:connector-curvature="0"
               d="M 95.87,281.895 C 82.277,268.551 70.804,253.123 61.933,236.249 c -1.926,-3.665 -6.459,-5.074 -10.13,-3.148 -3.666,1.928 -5.076,6.463 -3.148,10.13 9.231,17.559 21.469,34.413 36.707,49.37 2.954,2.899 7.703,2.86 10.607,-0.099 2.901,-2.957 2.857,-7.705 -0.099,-10.607 z"
               id="path3698" />
          </g>
        </g>
        <g
           id="g3708">
          <g
             id="g3706" />
        </g>
        <g
           id="g3714">
          <g
             id="g3712">
            <g
               id="g3922">
              <path
                 id="path3704"
                 d="m 223.391,412.401 c 7.916,8.427 25.751,46.297 75.842,61.176 19.255,5.72 26.879,21.366 30.107,24.829 11.08,14.901 32.252,18.061 105.372,-36.306 73.008,-54.285 76.105,-75.339 65.069,-90.18 l -13.367,-17.98 c 1.904,-7.314 8.028,-25.754 4.968,-51.339 -3.324,-27.768 -11.94,-32.114 -14.678,-48.103 -6.713,-39.192 11.373,-92.947 15.066,-103.325 0.155,-0.437 0.247,-0.707 0.277,-0.803 7.899,-24.969 13.117,-41.466 -12.029,-53.564 -22.497,-10.822 -46.173,-1.213 -60.314,24.482 -0.866,1.574 -19.008,34.933 -26.809,80.441 L 295.095,70.19075 268.73,34.73 C 249.647,9.065 209.279,15.794 200.639,46.845 178.925,22.955 139.176,34.059 134.048,66.074 c -1.479,9.233 0.392,18.453 5.278,26.291 -31.77,-0.685 -50.429,35.775 -31.132,61.726 l 11.734,15.782 c -32.355,-0.346 -49.896,36.267 -30.972,61.72 9.667,13.002 12.875,17.316 13.804,18.566 -0.002,-0.003 -0.003,-0.005 -0.005,-0.006 0.003,0.004 0.011,0.015 0.023,0.03 -0.006,-0.009 -0.012,-0.016 -0.016,-0.021 0.103,0.139 0.18,0.242 0.232,0.312 -0.054,-0.073 -0.119,-0.16 -0.168,-0.226 0.044,0.059 0.112,0.151 0.208,0.28 10e-4,0.002 0.003,0.004 0.004,0.005 1.996,2.685 16.408,22.068 99.43,133.73 M 285.97682,82.865303 391.864,225.484 c 4.091,5.502 12.838,3.055 13.486,-3.765 4.912,-51.683 26.576,-91.522 27.497,-93.194 3.853,-7.006 18.18,-29.018 40.668,-18.198 14.204,6.834 11.611,10.803 4.122,35.816 -5.497,15.446 -22.878,69.093 -15.72,110.888 3.435,20.051 11.442,21.223 14.568,47.355 1.252,10.46 0.869,21.125 -1.127,31.831 -0.482,2.363 -3.211,13.553 -13.584,26.015 -2.649,3.184 -2.217,7.913 0.967,10.564 3.189,2.655 7.919,2.21 10.564,-0.967 1.427,-1.714 2.733,-3.412 3.935,-5.084 l 10.503,14.126 c 6.101,8.205 4.388,19.843 -3.815,25.942 l -40.91875,30.42425 C 359.3,499.476 353.07571,504.70829 346.91171,496.42029 343.91671,493.26629 328.314,466.567 303.504,459.197 258.913,445.951 243.888,412.535 224.968,389.3805 77.984,191.69 115.436,242.065 100.994,222.641 c -12.373,-16.643 0.388,-39.717 20.698,-37.654 11.121,1.128 16.275,9.205 16.393,9.308 l 68.253,91.798 c 1.472,1.98 3.733,3.025 6.025,3.025 6.089,0 9.715,-6.998 6.014,-11.976 -9.24,-12.428 -88.916,-119.589 -98.147,-132.004 -7.48,-10.06 -6.135,-24.148 3.063,-32.073 10.362,-8.927 25.938,-7.154 34.018,3.712 l 92.621,124.573 c 1.472,1.98 3.733,3.025 6.025,3.025 1.556,0 3.125,-0.481 4.469,-1.481 3.324,-2.472 4.016,-7.171 1.544,-10.494 C 253.8,221.407 158.606,93.373 153.174,86.066 c -7.825,-10.523 -5.477,-25.424 5.307,-33.021 10.247,-7.214 24.856,-4.645 32.568,5.727 2.024,2.722 113.197,152.247 114.287,153.713 2.474,3.33 7.179,4.011 10.494,1.544 3.326,-2.472 4.018,-7.17 1.545,-10.493 L 218.852,71.023 v -10e-4 c -7.985,-10.737 -5.469,-26.482 6.624,-33.883 10.155,-6.217 23.866,-3.343 31.216,6.541"
                 inkscape:connector-curvature="0"
                 sodipodi:nodetypes="cccccccccccccccccccccccccccccccccccccccccccccccccccccscccccscccccccccccc"
                 style="fill:#165016" />
            </g>
          </g>
        </g>
        <g
           id="g3726">
          <g
             id="g3724">
            <g
               id="g3722">
              <path
                 inkscape:connector-curvature="0"
                 d="m 102.826,250.247 c -0.021,-0.028 -0.037,-0.049 -0.048,-0.065 0.013,0.017 0.029,0.04 0.048,0.065 z"
                 id="path3716" />
              <path
                 inkscape:connector-curvature="0"
                 d="m 102.755,250.152 c -0.002,-0.003 -0.002,-0.003 0,0 z"
                 id="path3718" />
              <path
                 inkscape:connector-curvature="0"
                 d="m 103.049,250.548 c 0.073,0.097 0.054,0.072 0,0 z"
                 id="path3720"
                 sodipodi:nodetypes="cc" />
            </g>
          </g>
        </g>
        <g
           id="g3728" />
        <g
           id="g3730" />
        <g
           id="g3732" />
        <g
           id="g3734" />
        <g
           id="g3736" />
        <g
           id="g3738" />
        <g
           id="g3740" />
        <g
           id="g3742" />
        <g
           id="g3744" />
        <g
           id="g3746" />
        <g
           id="g3748" />
        <g
           id="g3750" />
        <g
           id="g3752" />
        <g
           id="g3754" />
        <g
           id="g3756" />
      </g>
    </a>
    <path
       style="fill:#ffcc00;stroke-width:0.05772866"
       d="m 69.349685,211.55858 c -0.03559,-0.0653 8.07583,-12.49015 8.557407,-13.10793 0.589858,-0.75667 1.517985,-1.39875 2.431261,-1.68193 0.355396,-0.11021 0.579948,-0.13452 1.246319,-0.13499 0.729406,-4.9e-4 0.862861,0.0166 1.300508,0.16653 1.03131,0.35338 1.960348,1.04369 2.543955,1.89023 0.2824,0.40962 0.334555,0.60838 0.159634,0.60838 -0.04152,0 -0.0755,0.0277 -0.0755,0.0615 0,0.0338 -0.03657,0.0615 -0.08129,0.0615 -0.04468,0 -0.08128,0.0277 -0.08128,0.0615 0,0.0339 -0.03455,0.0615 -0.0768,0.0615 -0.04225,0 -0.08489,0.0228 -0.09483,0.0508 -0.02052,0.0577 -0.78813,0.64739 -0.912161,0.70068 -0.04469,0.0192 -0.419221,0.30079 -0.832255,0.62573 -0.413025,0.32495 -0.772696,0.59082 -0.799264,0.59082 -0.0266,0 -0.04833,0.0277 -0.04833,0.0615 0,0.0339 -0.03658,0.0615 -0.08128,0.0615 -0.04469,0 -0.08128,0.0277 -0.08128,0.0615 0,0.0338 -0.03658,0.0615 -0.08129,0.0615 -0.04469,0 -0.08128,0.0277 -0.08128,0.0615 0,0.0338 -0.03658,0.0615 -0.08128,0.0615 -0.04469,0 -0.08129,0.0277 -0.08129,0.0615 0,0.0338 -0.03657,0.0615 -0.08128,0.0615 -0.04469,0 -0.08129,0.0277 -0.08129,0.0615 0,0.0339 -0.03658,0.0615 -0.08128,0.0615 -0.04469,0 -0.08128,0.0277 -0.08128,0.0615 0,0.0338 -0.03657,0.0615 -0.08129,0.0615 -0.0447,0 -0.08128,0.0277 -0.08128,0.0615 0,0.0338 -0.03657,0.0615 -0.08128,0.0615 -0.04471,0 -0.08128,0.0277 -0.08128,0.0615 0,0.0339 -0.03657,0.0615 -0.08128,0.0615 -0.0447,0 -0.08128,0.0277 -0.08128,0.0615 0,0.0338 -0.02267,0.0615 -0.05036,0.0615 -0.07967,0 -0.925016,0.62594 -0.925016,0.68493 0,0.0292 -0.03657,0.0531 -0.08128,0.0531 -0.0447,0 -0.08128,0.0277 -0.08128,0.0615 0,0.0338 -0.03657,0.0615 -0.08128,0.0615 -0.04471,0 -0.08128,0.0277 -0.08128,0.0615 0,0.0339 -0.03657,0.0615 -0.08128,0.0615 -0.0447,0 -0.08128,0.0277 -0.08128,0.0615 0,0.0338 -0.03657,0.0615 -0.08128,0.0615 -0.0447,0 -0.08128,0.0277 -0.08128,0.0615 0,0.0339 -0.03657,0.0615 -0.08128,0.0615 -0.04471,0 -0.08128,0.0277 -0.08128,0.0615 0,0.0339 -0.03658,0.0615 -0.08128,0.0615 -0.0447,0 -0.08128,0.0277 -0.08128,0.0615 0,0.0339 -0.03657,0.0615 -0.08128,0.0615 -0.04471,0 -0.08128,0.0277 -0.08128,0.0615 0,0.0339 -0.03455,0.0615 -0.07677,0.0615 -0.04222,0 -0.08489,0.0207 -0.09483,0.0461 -0.02598,0.0664 -0.465899,0.38437 -0.531683,0.38437 -0.03044,0 -0.05535,0.0277 -0.05535,0.0615 0,0.0339 -0.03397,0.0615 -0.07549,0.0615 -0.04151,0 -0.09086,0.0455 -0.10965,0.10106 -0.0188,0.0556 -0.04947,0.0837 -0.06817,0.0624 -0.01871,-0.0213 -0.0608,-0.002 -0.09355,0.0425 -0.03275,0.0446 -1.23,0.96383 -2.660557,2.04268 -1.430556,1.07884 -2.609139,1.98285 -2.619073,2.00892 -0.0099,0.026 -0.05261,0.0474 -0.09483,0.0474 -0.04222,0 -0.07677,0.0277 -0.07677,0.0615 0,0.0339 -0.03657,0.0615 -0.08128,0.0615 -0.04471,0 -0.08128,0.0277 -0.08128,0.0615 0,0.0339 -0.03455,0.0615 -0.07677,0.0615 -0.04222,0 -0.08489,0.023 -0.09483,0.0511 -0.02463,0.0697 -1.820138,1.42495 -1.887763,1.42495 -0.02968,0 -0.05396,0.0277 -0.05396,0.0615 0,0.0339 -0.03657,0.0615 -0.08128,0.0615 -0.04471,0 -0.08128,0.0277 -0.08128,0.0615 0,0.0339 -0.03657,0.0615 -0.08128,0.0615 -0.0447,0 -0.08128,0.0225 -0.08128,0.0502 0,0.056 -0.454115,0.36014 -0.471808,0.31603 -0.0062,-0.0154 -0.04512,0.0247 -0.08656,0.089 -0.04144,0.0643 -0.08983,0.0903 -0.107537,0.0578 z"
       id="path3973"
       inkscape:connector-curvature="0" />
    <path
       style="fill:#ffcc00;stroke-width:0.05772866"
       d="m 57.714975,212.21607 v -8.18196 l 6.372392,-9.73237 c 3.504819,-5.35279 6.510205,-9.89429 6.67864,-10.09222 0.671047,-0.78855 1.534466,-1.37128 2.446658,-1.65129 0.605142,-0.18574 1.93433,-0.20009 2.492637,-0.0269 0.918426,0.28492 1.974563,1.04613 2.528546,1.82249 0.832532,1.16672 1.195325,2.39641 1.141869,3.87037 -0.04397,1.2123 -0.326633,2.12638 -0.971338,3.14106 -0.962402,1.51471 -17.316928,26.43943 -17.422961,26.55305 -0.07102,0.0761 -0.152266,0.13838 -0.180535,0.13838 -0.02827,0 -0.05139,0.0277 -0.05139,0.0615 0,0.0338 -0.03657,0.0615 -0.08128,0.0615 -0.04471,0 -0.08128,0.0277 -0.08128,0.0615 0,0.0338 -0.03657,0.0615 -0.08128,0.0615 -0.0447,0 -0.08128,0.0277 -0.08128,0.0615 0,0.0339 -0.03657,0.0615 -0.08128,0.0615 -0.04471,0 -0.08128,0.0277 -0.08128,0.0615 0,0.0339 -0.03658,0.0615 -0.08128,0.0615 -0.0447,0 -0.08128,0.0277 -0.08128,0.0615 0,0.0339 -0.03658,0.0615 -0.08128,0.0615 -0.04471,0 -0.08128,0.0277 -0.08128,0.0615 0,0.0338 -0.03455,0.0615 -0.07677,0.0615 -0.04222,0 -0.08489,0.0207 -0.09483,0.0461 -0.02477,0.0632 -0.62768,0.50739 -0.68878,0.50739 -0.02707,0 -0.06385,0.0433 -0.08173,0.0962 -0.01788,0.0528 -0.05451,0.0807 -0.0814,0.0618 -0.02689,-0.0189 -0.06347,0.009 -0.08128,0.0615 -0.01781,0.0526 -0.05695,0.0786 -0.08696,0.0575 -0.03001,-0.0211 -0.05457,-0.0131 -0.05457,0.0179 0,0.0525 -0.582097,0.51711 -0.853455,0.68124 l -0.121923,0.0737 z"
       id="path3975"
       inkscape:connector-curvature="0"
       inkscape:label="path3975" />
    <path
       style="fill:#ffcc00;stroke-width:0.05772866"
       d="m 57.714975,188.6665 v -9.11475 l 0.501237,-0.27377 c 0.781119,-0.42664 1.223823,-0.53851 2.153962,-0.54427 0.647404,-0.004 0.862034,0.0187 1.219223,0.12899 0.904888,0.27941 1.708189,0.81913 2.336428,1.56976 1.483874,1.77296 1.798628,4.3736 0.789438,6.52267 -0.157928,0.33631 -1.103779,1.83588 -2.502046,3.96682 -1.236474,1.88435 -2.754407,4.19856 -3.373187,5.14269 l -1.125055,1.71659 z"
       id="path3977"
       inkscape:connector-curvature="0" />
    <path
       style="fill:#000000;stroke-width:0.08164067"
       d="m 36.098695,294.09345 c -0.0192,-0.0218 -0.170523,-0.0576 -0.336256,-0.0796 -0.703639,-0.0933 -1.258712,-0.22115 -1.642411,-0.37818 -0.06322,-0.0259 -0.136123,-0.0426 -0.162002,-0.0372 -0.0702,0.0147 -1.763754,-0.66742 -1.861285,-0.7497 -0.04627,-0.039 -0.230681,-0.12342 -0.40981,-0.18753 -0.179132,-0.0641 -0.325691,-0.1468 -0.325691,-0.18375 0,-0.0597 -0.283474,-0.19813 -0.383167,-0.18723 -0.02107,0.002 -0.107286,-0.0395 -0.191581,-0.0929 -0.0843,-0.0534 -0.176893,-0.0984 -0.205773,-0.10014 -0.09327,-0.006 -0.942881,-0.52279 -0.969266,-0.59017 -0.01405,-0.0359 -0.08961,-0.0653 -0.167903,-0.0653 -0.07829,0 -0.159327,-0.0312 -0.180069,-0.0692 -0.02074,-0.0381 -0.298655,-0.21957 -0.617587,-0.40331 -0.31893,-0.18373 -0.579874,-0.37013 -0.579874,-0.41423 0,-0.0441 -0.03473,-0.0559 -0.07717,-0.026 -0.04245,0.0298 -0.09786,-0.007 -0.123147,-0.0818 -0.02529,-0.0748 -0.10325,-0.13599 -0.173252,-0.13599 -0.07,0 -0.254152,-0.0978 -0.409218,-0.21743 -0.155067,-0.1196 -0.320288,-0.21745 -0.367161,-0.21745 -0.04687,0 -0.06391,-0.0391 -0.03786,-0.087 0.02605,-0.0479 -0.02473,-0.087 -0.112831,-0.087 -0.08811,0 -0.179968,-0.0585 -0.204136,-0.12997 -0.02417,-0.0714 -0.07481,-0.1083 -0.112545,-0.0818 -0.03773,0.0265 -0.0686,0.006 -0.0686,-0.044 0,-0.0506 -0.04566,-0.0921 -0.10146,-0.0921 -0.0558,0 -0.271222,-0.13699 -0.478712,-0.30442 -0.207486,-0.16743 -0.404621,-0.30442 -0.438073,-0.30442 -0.05398,0 -0.491551,-0.32195 -0.591048,-0.43487 -0.02107,-0.0239 -0.167635,-0.11815 -0.325689,-0.20939 -0.158057,-0.0912 -0.287375,-0.19888 -0.287375,-0.23919 0,-0.0403 -0.04638,-0.0733 -0.103072,-0.0733 -0.05669,0 -0.165489,-0.0782 -0.241776,-0.17396 -0.07629,-0.0957 -0.171012,-0.17395 -0.210497,-0.17395 -0.03949,0 -0.163462,-0.0806 -0.275499,-0.17911 -0.112034,-0.0985 -0.419231,-0.33859 -0.682658,-0.5335 -0.263426,-0.19491 -0.478956,-0.39058 -0.478956,-0.43485 0,-0.0443 -0.02821,-0.0606 -0.06268,-0.0365 -0.03447,0.0242 -0.155172,-0.0534 -0.268215,-0.17234 -0.113045,-0.11896 -0.205535,-0.18644 -0.205535,-0.14995 0,0.0365 -0.05408,-0.0213 -0.120192,-0.12839 -0.06611,-0.10712 -0.152319,-0.17223 -0.191583,-0.14468 -0.03927,0.0275 -0.07139,0.0134 -0.07139,-0.0315 0,-0.0448 -0.104827,-0.13083 -0.232951,-0.19106 -0.128123,-0.0602 -0.283304,-0.19111 -0.344848,-0.29083 -0.06155,-0.0997 -0.111897,-0.14622 -0.111897,-0.10332 0,0.0429 -0.07759,9.2e-4 -0.172427,-0.0941 -0.09483,-0.0947 -0.301506,-0.26784 -0.459272,-0.38482 -0.157769,-0.11697 -0.287088,-0.24101 -0.287375,-0.27566 -2.15e-4,-0.0346 -0.112599,-0.12805 -0.24958,-0.20758 -0.245606,-0.14256 -1.201011,-0.95931 -1.292171,-1.10464 -0.02579,-0.0411 -0.07751,-0.0739 -0.11495,-0.0729 -0.03743,9.2e-4 -0.385583,-0.27942 -0.773659,-0.62315 -0.388075,-0.34372 -0.870198,-0.76194 -1.071382,-0.92937 -0.38044,-0.31661 -0.663498,-0.57512 -0.833268,-0.76103 -0.0546,-0.0598 -0.120218,-0.10872 -0.145811,-0.10872 -0.02559,0 -0.122887,-0.0772 -0.216213,-0.17159 -0.529754,-0.53568 -0.810638,-0.78515 -0.884022,-0.78515 -0.04548,0 -0.110785,-0.057 -0.145119,-0.1266 -0.03434,-0.0697 -0.30591,-0.33382 -0.603503,-0.58709 -0.534955,-0.45527 -1.114625,-0.99774 -1.607332,-1.50419 -0.139616,-0.1435 -0.398953,-0.39791 -0.576301,-0.56534 -0.44059,-0.41594 -1.2089144,-1.18654 -1.4878218,-1.49222 -1.3927814,-1.52651 -2.9552939,-3.29143 -2.9139458,-3.29143 0.028581,0 -0.054135,-0.10132 -0.1838135,-0.22517 -0.1296768,-0.12385 -0.2357787,-0.28039 -0.2357787,-0.3479 0,-0.0675 -0.038385,-0.11295 -0.085301,-0.10099 -0.046915,0.012 -0.1417488,-0.10457 -0.2107403,-0.25895 -0.068992,-0.15438 -0.1685445,-0.28158 -0.2212307,-0.28267 -0.052686,-9.2e-4 -0.095791,-0.0338 -0.095791,-0.0725 0,-0.0388 -0.060348,-0.14645 -0.1341078,-0.23918 -0.073759,-0.0927 -0.2367362,-0.34473 -0.3621713,-0.56 -0.125435,-0.21527 -0.3064806,-0.4848 -0.4023235,-0.59895 -0.095843,-0.11415 -0.1742594,-0.24301 -0.1742594,-0.28635 0,-0.0433 -0.03497,-0.12604 -0.077712,-0.18383 -0.1988677,-0.26882 -0.4411509,-0.7483 -0.4010906,-0.79378 0.024502,-0.0278 0.00431,-0.0505 -0.044856,-0.0505 -0.049172,0 -0.089405,-0.0587 -0.089405,-0.13046 0,-0.0718 -0.027848,-0.13046 -0.061885,-0.13046 -0.0996,0 -0.6679713,-1.56457 -0.569219,-1.5669 0.030996,-9.2e-4 0.011168,-0.0339 -0.044062,-0.0736 -0.05523,-0.0398 -0.1069575,-0.21511 -0.1149495,-0.38968 -0.008,-0.17456 -0.036367,-0.31755 -0.063055,-0.31777 -0.051589,0 -0.062916,-0.14585 -0.081321,-1.0441 -0.014924,-0.72839 0.034649,-1.21726 0.1234586,-1.21748 0.038636,0 0.050072,-0.0231 0.025415,-0.0511 -0.086745,-0.0985 0.3439271,-1.30624 0.5163678,-1.44812 0.042717,-0.0352 0.050407,-0.0645 0.017091,-0.0653 -0.033317,-7.2e-4 0.027412,-0.10896 0.1349537,-0.24051 0.1075411,-0.13155 0.2147151,-0.30768 0.2381642,-0.39139 0.02345,-0.0838 0.074796,-0.15221 0.1141039,-0.15221 0.039308,0 0.071469,-0.0587 0.071469,-0.13046 0,-0.0718 0.028135,-0.13046 0.062522,-0.13046 0.034387,0 0.1385692,-0.15357 0.2315163,-0.34127 0.092947,-0.18769 0.1947217,-0.35404 0.2261661,-0.36965 0.031444,-0.0156 0.1939285,-0.24364 0.3610758,-0.50674 0.1671472,-0.26311 0.3303594,-0.49141 0.3626934,-0.50736 0.032334,-0.0159 0.058789,-0.0666 0.058789,-0.11239 0,-0.0878 0.03754,-0.14813 0.3299674,-0.52982 0.099581,-0.12998 0.2798604,-0.41373 0.4006239,-0.63058 0.1207614,-0.21683 0.2471768,-0.39424 0.2809183,-0.39424 0.033743,0 0.061352,-0.0587 0.061352,-0.13046 0,-0.0718 0.030795,-0.13046 0.068434,-0.13046 0.1438044,0 0.1439074,-0.26104 4.292e-4,-0.88034 -0.1618949,-0.6984 -0.2211255,-0.98286 -0.2603923,-1.25057 -0.014033,-0.0957 -0.031027,-0.17395 -0.037765,-0.17395 -0.023526,0 -0.218864,-0.948 -0.2688229,-1.30463 -0.01341,-0.0957 -0.048757,-0.29137 -0.078564,-0.43488 -0.029806,-0.14351 -0.05879,-0.38813 -0.064406,-0.5436 -0.00562,-0.15546 -0.03201,-0.28266 -0.058654,-0.28266 -0.026642,0 -0.051501,-0.14678 -0.055244,-0.32616 -0.00373,-0.17939 -0.022523,-0.41101 -0.041736,-0.51471 -0.1557925,-0.84083 -0.2156218,-4.75227 -0.094234,-6.16066 0.02886,-0.33486 0.051465,-0.70242 0.050236,-0.81681 -0.00129,-0.1144 0.035076,-0.36527 0.080681,-0.55749 0.045607,-0.19224 0.099628,-0.5096 0.1200512,-0.70527 0.073057,-0.70001 0.08426,-0.79566 0.1382297,-1.18018 0.03007,-0.21426 0.072326,-0.42197 0.093903,-0.4616 0.021575,-0.0396 0.051145,-0.15786 0.065715,-0.26275 0.0225,-0.16202 0.136378,-0.66946 0.2184691,-0.97351 0.012917,-0.0479 0.067378,-0.27289 0.1210296,-0.50011 0.053651,-0.22722 0.1299751,-0.41313 0.1696066,-0.41313 0.039634,0 0.049813,-0.0409 0.022622,-0.0908 -0.027191,-0.05 -0.00777,-0.14778 0.043177,-0.21744 0.050939,-0.0697 0.06693,-0.12665 0.035533,-0.12665 -0.031396,0 -0.014161,-0.0587 0.038316,-0.13046 0.05247,-0.0718 0.069712,-0.13047 0.038317,-0.13047 -0.031396,0 -0.01135,-0.0625 0.04452,-0.13895 0.055882,-0.0764 0.1127021,-0.22149 0.1262673,-0.32238 0.013561,-0.10089 0.049659,-0.2047 0.080205,-0.2307 0.030549,-0.0259 0.062816,-0.0864 0.071708,-0.13423 0.038687,-0.20815 0.5010695,-1.4062 0.6440521,-1.66878 0.08631,-0.15849 0.1334662,-0.28817 0.1047908,-0.28817 -0.028673,0 0.020234,-0.13923 0.1087002,-0.30939 0.08846,-0.17016 0.160835,-0.3626 0.160835,-0.42763 0,-0.0651 0.031374,-0.13129 0.069721,-0.14724 0.038346,-0.0159 0.08735,-0.15824 0.1088977,-0.31621 0.021545,-0.15798 0.079353,-0.34217 0.1284581,-0.40933 0.049105,-0.0672 0.068509,-0.16024 0.043121,-0.20687 -0.025392,-0.0467 -0.010559,-0.10976 0.032966,-0.14029 0.043525,-0.0306 0.058358,-0.0936 0.032967,-0.14028 -0.025392,-0.0466 -0.013479,-0.13198 0.026479,-0.18968 0.039957,-0.0577 0.09388,-0.28104 0.1198348,-0.4963 0.02596,-0.21526 0.063987,-0.48396 0.084517,-0.59709 0.020534,-0.11313 0.059729,-0.42624 0.087106,-0.6958 0.027379,-0.26956 0.063281,-0.56839 0.079776,-0.66406 0.1949367,-1.13054 0.1436007,-5.60228 -0.08637,-7.52338 -0.025773,-0.21527 -0.060775,-0.56752 -0.077798,-0.78279 -0.017014,-0.21526 -0.046404,-0.48923 -0.0653,-0.60883 -0.018904,-0.11959 -0.055958,-0.39717 -0.082355,-0.61685 -0.026397,-0.21968 -0.06333,-0.49537 -0.082067,-0.61265 -0.018734,-0.11727 -0.051335,-0.36807 -0.072429,-0.55732 -0.021094,-0.18924 -0.093416,-0.65719 -0.1607016,-1.03987 -0.067286,-0.3827 -0.1344662,-0.77409 -0.1492909,-0.86976 -0.014827,-0.0957 -0.067818,-0.38921 -0.1177617,-0.65232 -0.049946,-0.2631 -0.097566,-0.55664 -0.1058229,-0.65231 -0.00826,-0.0957 -0.055186,-0.33131 -0.1042843,-0.52364 -0.049098,-0.19233 -0.1047028,-0.48649 -0.1235659,-0.6537 -0.018861,-0.1672 -0.086773,-0.47688 -0.1509109,-0.68818 -0.06414,-0.21129 -0.1006753,-0.41344 -0.081188,-0.44923 0.019483,-0.0358 4.291e-4,-0.0896 -0.042453,-0.1197 -0.042835,-0.03 -0.077884,-0.15273 -0.077884,-0.27265 0,-0.11991 -0.033583,-0.28925 -0.074628,-0.37628 -0.041046,-0.0871 -0.09273,-0.32179 -0.1148564,-0.52167 -0.022127,-0.19986 -0.073113,-0.43312 -0.113305,-0.51836 -0.040194,-0.0852 -0.093775,-0.26866 -0.1190705,-0.40761 -0.062331,-0.3424 -0.1005165,-0.51357 -0.114571,-0.51357 -0.00646,0 -0.02233,-0.0587 -0.035293,-0.13046 -0.01296,-0.0718 -0.096019,-0.37976 -0.1845731,-0.68447 -0.088556,-0.3047 -0.1422465,-0.58845 -0.1193152,-0.63057 0.022934,-0.0421 0.011629,-0.0766 -0.025092,-0.0766 -0.036733,0 -0.1475272,-0.36204 -0.246209,-0.80452 -0.098684,-0.44249 -0.2099056,-0.84945 -0.2471618,-0.90437 -0.037258,-0.055 -0.083681,-0.18212 -0.1031622,-0.28267 l -0.070845,-0.36564 c -0.019483,-0.10056 -0.076124,-0.2385 -0.1258682,-0.30653 -0.049747,-0.068 -0.0692,-0.1478 -0.043232,-0.17727 0.02597,-0.0295 -0.00242,-0.15574 -0.063085,-0.28058 -0.085591,-0.17612 -0.3556683,-1.10339 -0.4650983,-1.59684 -0.00796,-0.0359 -0.023088,-0.0848 -0.033624,-0.10871 -0.010538,-0.0239 -0.025802,-0.0728 -0.033922,-0.10873 -0.00812,-0.0359 -0.1058497,-0.39791 -0.2171772,-0.80452 -0.1113274,-0.40661 -0.2193025,-0.83714 -0.2399443,-0.95674 -0.020642,-0.11959 -0.056541,-0.3055 -0.079776,-0.41312 -0.023235,-0.10764 -0.055873,-0.26434 -0.072529,-0.34825 -0.016658,-0.0838 -0.065722,-0.30894 -0.1090352,-0.50011 -0.2232609,-0.98535 -0.2806239,-3.50472 -0.087127,-3.82658 0.028759,-0.0479 0.051242,-0.15418 0.049962,-0.23633 -0.00129,-0.0821 0.052225,-0.2974 0.1188983,-0.47837 0.066673,-0.18095 0.1417706,-0.38771 0.166882,-0.45947 0.025111,-0.0717 0.1138812,-0.24788 0.1972655,-0.39139 0.083385,-0.14351 0.1919947,-0.34899 0.2413561,-0.45662 0.049361,-0.10763 0.1416871,-0.1957 0.2051686,-0.1957 0.063481,0 0.096225,-0.0218 0.072763,-0.0484 -0.069427,-0.0788 0.5666795,-0.82239 0.6521952,-0.76241 0.045048,0.0316 0.054935,0.0121 0.023283,-0.0461 -0.031879,-0.0585 0.00343,-0.12529 0.083949,-0.15873 0.076431,-0.0318 0.2163664,-0.14331 0.3109649,-0.24797 0.094601,-0.10465 0.3359948,-0.28389 0.5364312,-0.39831 0.2004386,-0.11442 0.381675,-0.23212 0.4027483,-0.26154 0.021071,-0.0295 0.1159077,-0.081 0.2107401,-0.11459 0.094835,-0.0336 0.1724241,-0.0917 0.1724241,-0.12914 0,-0.0375 0.2327746,-0.17559 0.5172741,-0.30701 0.2844994,-0.13142 0.5862425,-0.27432 0.6705393,-0.31757 0.4947521,-0.25383 1.4503642,-0.52936 1.9165112,-0.55259 0.126822,-0.006 0.264762,-0.0352 0.306532,-0.0643 0.126718,-0.0882 2.451571,0.012 2.451571,0.10563 0,0.008 0.08621,0.0264 0.191582,0.04 0.10537,0.0136 0.346765,0.0711 0.536432,0.12784 0.189667,0.0567 0.422439,0.12447 0.517271,0.15067 0.09483,0.0262 0.172427,0.0887 0.172427,0.13896 0,0.0503 0.02269,0.0655 0.05042,0.0341 0.02774,-0.0315 0.0967,-0.0136 0.153267,0.0397 0.05657,0.0533 0.102843,0.0724 0.102843,0.0422 0,-0.0935 1.254502,0.66612 1.446122,0.87563 0.09992,0.10925 0.205684,0.1818 0.235025,0.16122 0.150621,-0.10565 2.290963,2.15804 2.689505,2.8445 0.103956,0.17906 0.214875,0.32583 0.246486,0.32616 0.03161,2.4e-4 0.05747,0.0593 0.05747,0.13106 0,0.0718 0.0336,0.13046 0.07467,0.13046 0.08081,0 0.350086,0.52364 0.324255,0.63058 -0.0087,0.0359 0.01592,0.0653 0.05463,0.0653 0.07971,0 0.415966,0.58733 0.439224,0.76718 0.0084,0.0648 0.0629,0.18289 0.121163,0.2624 0.05826,0.0795 0.147295,0.24243 0.197859,0.36202 0.05056,0.11959 0.174548,0.37399 0.275524,0.56534 0.100975,0.19135 0.167695,0.37726 0.148263,0.41314 -0.01944,0.0359 0.0069,0.0653 0.05859,0.0653 0.05166,0 0.07124,0.0258 0.04351,0.0573 -0.02774,0.0315 -0.01202,0.10975 0.03493,0.17395 0.04694,0.0642 0.06138,0.11672 0.03209,0.11672 -0.02929,0 0.01822,0.10313 0.105566,0.22917 0.08736,0.12603 0.158828,0.28539 0.158828,0.35411 0,0.0688 0.05204,0.18401 0.115655,0.25621 0.06361,0.0722 0.09606,0.16724 0.07211,0.21122 -0.02395,0.044 -0.0013,0.08 0.05039,0.08 0.05166,0 0.07124,0.0258 0.0435,0.0573 -0.02774,0.0315 -0.02062,0.1 0.01581,0.1522 0.07851,0.11257 0.774225,1.92368 0.777995,2.02531 0.0015,0.0386 0.06922,0.22666 0.150663,0.41801 0.08144,0.19134 0.149238,0.38744 0.150667,0.43577 0.0015,0.0483 0.122877,0.40058 0.269881,0.78277 0.147003,0.38221 0.2677,0.78298 0.268215,0.89062 4.29e-4,0.10762 0.03268,0.19569 0.07148,0.19569 0.06191,0 0.185752,0.40901 0.197519,0.65232 0.0024,0.0479 0.03079,0.13516 0.06329,0.19406 0.05339,0.0968 0.36673,1.0801 0.360814,1.13231 -0.0013,0.012 0.0019,0.0413 0.0071,0.0653 0.0053,0.0239 0.0182,0.0827 0.02873,0.13046 0.01053,0.0479 0.02778,0.10655 0.03832,0.13047 0.01054,0.0239 0.02645,0.0728 0.03536,0.10872 0.0089,0.0359 0.03585,0.12394 0.05987,0.19569 0.02402,0.0718 0.154434,0.54143 0.289807,1.04371 0.135375,0.50228 0.293789,1.08655 0.352033,1.29838 0.05824,0.21183 0.105898,0.49327 0.105898,0.62544 0,0.13217 0.03057,0.26175 0.06794,0.28796 0.03737,0.0262 0.09464,0.19486 0.127254,0.37478 0.03262,0.17991 0.07224,0.38582 0.08805,0.45758 0.01579,0.0718 0.03613,0.2185 0.04517,0.3261 0.009,0.1076 0.04805,0.19566 0.08668,0.1957 0.03863,3e-5 0.04945,0.0237 0.02405,0.0525 -0.02541,0.0288 -0.0129,0.15184 0.02782,0.27336 0.0407,0.12151 0.09132,0.41828 0.112475,0.65951 0.02116,0.24122 0.06797,0.48024 0.104016,0.53116 0.06341,0.0896 0.186734,0.73988 0.190738,1.00583 0.0011,0.0718 0.02573,0.15006 0.05479,0.17402 0.02905,0.0239 0.07326,0.21965 0.09825,0.43488 0.02499,0.21522 0.09102,0.64572 0.146741,0.95666 l 0.101313,0.56534 0.120843,-0.26113 c 0.06647,-0.14363 0.193345,-0.3356 0.281957,-0.42662 0.08861,-0.091 0.161111,-0.2002 0.161111,-0.24264 0,-0.0424 0.03612,-0.12444 0.08026,-0.18222 0.04414,-0.0578 0.219514,-0.32031 0.389713,-0.58342 0.170198,-0.26309 0.396081,-0.58234 0.50196,-0.70941 0.10588,-0.12709 0.180526,-0.24546 0.165878,-0.26307 -0.01466,-0.0176 0.01528,-0.0897 0.06649,-0.16033 0.36541,-0.50353 0.545475,-0.77098 0.670427,-0.99583 0.164286,-0.2956 0.239109,-0.40389 0.485217,-0.70224 0.09675,-0.11729 0.154634,-0.21326 0.128635,-0.21326 -0.026,0 -0.0017,-0.0539 0.05399,-0.1198 0.0557,-0.0659 0.152996,-0.20768 0.216218,-0.31508 0.06322,-0.10739 0.158056,-0.24638 0.210741,-0.30886 0.05269,-0.0625 0.09579,-0.14688 0.09579,-0.18757 0,-0.0407 0.06713,-0.1289 0.149162,-0.19601 0.08204,-0.0671 0.133964,-0.14993 0.115389,-0.18404 -0.01858,-0.0341 0.01777,-0.0845 0.08074,-0.11189 0.06298,-0.0274 0.114509,-0.10298 0.114509,-0.1679 0,-0.0649 0.0887,-0.2126 0.1971,-0.32819 0.108406,-0.11559 0.269939,-0.35724 0.35896,-0.53701 0.08902,-0.17978 0.18767,-0.32687 0.219219,-0.32687 0.03155,0 0.077,-0.0685 0.101022,-0.1522 0.02401,-0.0837 0.197832,-0.3479 0.386257,-0.58709 0.188424,-0.23918 0.343521,-0.46378 0.344663,-0.49911 0.0019,-0.0631 0.171168,-0.31534 0.371553,-0.5543 0.05569,-0.0665 0.07294,-0.122 0.03832,-0.12352 -0.03462,-0.002 -0.01122,-0.0514 0.052,-0.11073 0.06323,-0.0594 0.149435,-0.16971 0.191581,-0.24517 0.04215,-0.0755 0.190785,-0.30942 0.330305,-0.51986 0.139519,-0.21044 0.311942,-0.47664 0.383166,-0.59156 0.07122,-0.11492 0.187536,-0.27864 0.258478,-0.36384 0.07094,-0.0852 0.190809,-0.26513 0.266375,-0.39988 0.07557,-0.13475 0.181327,-0.2763 0.235023,-0.31455 0.0537,-0.0383 0.09763,-0.12632 0.09763,-0.19569 0,-0.0694 0.03448,-0.12615 0.07664,-0.12615 0.04215,0 0.07663,-0.0408 0.07663,-0.0907 0,-0.0499 0.03475,-0.13792 0.07721,-0.1957 0.04247,-0.0578 0.249831,-0.35945 0.460801,-0.67039 0.210972,-0.31093 0.449493,-0.6534 0.53005,-0.76103 0.08055,-0.10763 0.13047,-0.1957 0.110925,-0.1957 -0.03595,0 0.06114,-0.14602 0.284392,-0.42771 0.06727,-0.0849 0.237686,-0.34626 0.378706,-0.58085 0.141017,-0.23459 0.284267,-0.43958 0.318333,-0.45553 0.03406,-0.0159 0.06193,-0.0665 0.06193,-0.11239 0,-0.0458 0.03529,-0.13067 0.07841,-0.18844 0.04312,-0.0578 0.248934,-0.35946 0.457357,-0.67039 0.208422,-0.31094 0.431775,-0.63384 0.49634,-0.71755 0.06456,-0.0837 0.116663,-0.17255 0.115777,-0.19741 -0.0017,-0.0467 0.101016,-0.19913 0.318404,-0.47279 0.06887,-0.0867 0.273188,-0.40677 0.454048,-0.71131 0.180859,-0.30453 0.351614,-0.57326 0.379455,-0.59719 0.02784,-0.0239 0.08215,-0.10663 0.120698,-0.18381 0.08178,-0.16375 0.462396,-0.70833 0.68315,-0.97746 0.0843,-0.10276 0.144644,-0.2162 0.134108,-0.25208 -0.01053,-0.0359 0.01532,-0.0653 0.05747,-0.0653 0.04215,0 0.07761,-0.049 0.07881,-0.10872 0.0013,-0.0598 0.139138,-0.28342 0.306532,-0.49695 0.167396,-0.21353 0.304358,-0.41363 0.304358,-0.44466 0,-0.031 0.09483,-0.19437 0.210741,-0.36297 0.115907,-0.16859 0.262468,-0.39601 0.32569,-0.50538 0.06322,-0.10936 0.220772,-0.33883 0.350107,-0.50994 0.129338,-0.17111 0.313197,-0.45788 0.408574,-0.63726 0.09538,-0.17939 0.205089,-0.32617 0.2438,-0.32617 0.03871,0 0.07038,-0.0565 0.07038,-0.12552 0,-0.069 0.07665,-0.18647 0.170317,-0.26093 0.09367,-0.0745 0.145289,-0.13539 0.114701,-0.13539 -0.05248,0 0.635993,-1.08498 0.896836,-1.41336 0.0665,-0.0837 0.121708,-0.18155 0.122685,-0.21743 0.0015,-0.0568 0.242335,-0.39742 0.645571,-0.91325 0.06544,-0.0837 0.118982,-0.18396 0.118982,-0.22278 0,-0.0388 0.06035,-0.14781 0.134108,-0.24221 0.183835,-0.23527 0.572125,-0.81526 0.722246,-1.07882 0.06812,-0.1196 0.19777,-0.3055 0.288113,-0.41314 0.09035,-0.10763 0.137056,-0.19688 0.103804,-0.19834 -0.03325,-0.002 -7.5e-5,-0.0425 0.07365,-0.0913 0.07376,-0.0488 0.134107,-0.1432 0.134107,-0.20987 0,-0.0666 0.06348,-0.17235 0.141079,-0.23486 0.0776,-0.0625 0.232409,-0.2702 0.344033,-0.46155 0.279813,-0.47966 0.457634,-0.76505 0.548834,-0.88085 0.04248,-0.0539 0.12896,-0.18864 0.192183,-0.29936 0.06322,-0.11071 0.190975,-0.29164 0.283891,-0.40204 0.09292,-0.11041 0.153604,-0.20075 0.134856,-0.20075 -0.03441,0 0.147105,-0.26532 0.333899,-0.48807 0.0557,-0.0665 0.07294,-0.12195 0.03832,-0.1234 -0.03462,-0.002 -0.0026,-0.0425 0.07115,-0.0913 0.07376,-0.0488 0.134108,-0.13859 0.134108,-0.19963 0,-0.061 0.08949,-0.20587 0.198864,-0.32183 0.109376,-0.11598 0.246512,-0.31479 0.304747,-0.44181 0.05824,-0.12701 0.149792,-0.28463 0.203459,-0.35024 0.05367,-0.0656 0.182254,-0.25524 0.285744,-0.42138 0.226649,-0.36385 0.306869,-0.4802 0.482372,-0.69969 0.07376,-0.0922 0.134108,-0.18684 0.134108,-0.21021 0,-0.0436 0.19183,-0.32058 0.366745,-0.52945 0.05419,-0.0647 0.09657,-0.13939 0.09418,-0.16595 -0.0024,-0.0266 0.0325,-0.0965 0.07752,-0.15531 0.04503,-0.0589 0.220853,-0.32227 0.390715,-0.58538 0.459981,-0.71247 0.626696,-0.96023 0.783235,-1.16402 0.07778,-0.10126 0.190742,-0.29173 0.251026,-0.42329 0.06028,-0.13155 0.143204,-0.23917 0.18427,-0.23917 0.04107,0 0.07467,-0.0587 0.07467,-0.13047 0,-0.0718 0.03448,-0.13047 0.07663,-0.13047 0.04215,0 0.07663,-0.0408 0.07663,-0.0907 0,-0.0499 0.03328,-0.13792 0.07397,-0.19569 0.04069,-0.0578 0.172664,-0.24204 0.293295,-0.40947 0.120628,-0.16742 0.334827,-0.49764 0.475999,-0.73379 0.295472,-0.4943 1.414165,-1.7885 1.545959,-1.7885 0.04872,0 0.06581,-0.0259 0.03798,-0.0574 -0.05628,-0.0639 0.259999,-0.34481 0.350746,-0.31154 0.03161,0.0116 0.05747,-0.0144 0.05747,-0.0576 0,-0.16331 1.703006,-1.19623 2.107408,-1.2782 0.0843,-0.0171 0.429145,-0.11609 0.766331,-0.21998 0.514268,-0.15847 0.829177,-0.18997 1.954142,-0.19546 1.495136,-0.007 2.022478,0.10172 3.25828,0.67355 1.308221,0.60534 2.72011,1.89313 3.481576,3.17555 0.363434,0.61208 0.933476,1.935 1.0824,2.51197 l 0.09561,0.37041 0.506645,-0.55515 c 1.459429,-1.59911 3.589818,-2.5775 5.612396,-2.5775 0.84528,0 2.048289,0.16278 2.333464,0.31574 0.131514,0.0705 0.312559,0.13453 0.402324,0.14221 0.08976,0.007 0.163208,0.0365 0.163208,0.0639 0,0.0275 0.06776,0.0558 0.150566,0.0629 0.180013,0.0154 1.387777,0.68906 1.497044,0.83502 0.04215,0.0563 0.1784,0.16108 0.302778,0.23283 0.124382,0.0718 0.451989,0.38163 0.728013,0.68862 0.276032,0.30698 0.528692,0.55123 0.561474,0.54278 0.03278,-0.008 0.08195,0.0535 0.109241,0.13766 0.0273,0.0841 0.121173,0.23888 0.208611,0.34383 0.377479,0.45309 0.42719,0.52451 0.42719,0.61376 0,0.0518 0.02852,0.10722 0.06336,0.12316 0.13375,0.0612 0.878755,2.04487 1.068063,2.84382 0.176948,0.74681 0.198585,0.99928 0.198585,2.31673 0,1.32945 -0.02068,1.56615 -0.205292,2.3467 -0.112905,0.47747 -0.369046,1.24494 -0.569204,1.7055 l -0.363927,0.83739 0.845156,0.0985 c 1.059881,0.12351 1.892079,0.36802 2.683825,0.7885 1.197854,0.63618 2.133225,1.45647 2.884462,2.52959 0.251153,0.35878 0.505802,0.72125 0.56588,0.80552 0.06009,0.0842 0.109231,0.18863 0.109231,0.23193 0,0.0433 0.02652,0.0918 0.05888,0.10773 0.08575,0.0423 0.594418,1.2271 0.581856,1.35537 -0.0057,0.0598 0.02003,0.10872 0.0575,0.10872 0.03747,0 0.06269,0.0294 0.05596,0.0653 -0.0065,0.0359 0.0073,0.12393 0.03195,0.19569 0.05669,0.16782 0.1406,0.60136 0.121939,0.63018 -0.0081,0.0122 0.02774,0.11138 0.07923,0.22046 0.05142,0.10907 0.109759,0.32434 0.129612,0.47836 0.01987,0.15403 0.05701,0.4366 0.08253,0.62795 0.0579,0.43403 0.05474,1.89723 -0.0049,2.30485 -0.07201,0.4914 -0.127819,0.90526 -0.137778,1.02197 -0.0049,0.0598 -0.03479,0.10871 -0.06593,0.10871 -0.03114,0 -0.03868,0.0782 -0.01663,0.17395 0.02238,0.0973 0.0024,0.17396 -0.0455,0.17396 -0.04704,0 -0.08557,0.11742 -0.08557,0.26092 0,0.14351 -0.02871,0.26093 -0.06382,0.26093 -0.03512,0 -0.06391,0.0591 -0.06391,0.13126 0,0.16014 -0.347823,1.03153 -0.427858,1.0719 -0.03163,0.0159 -0.0575,0.0767 -0.0575,0.13492 0,0.13732 -0.596981,1.18552 -0.779322,1.36836 -0.07712,0.0774 -0.140276,0.18623 -0.140276,0.24192 0,0.0557 -0.05174,0.12377 -0.114948,0.15131 -0.06326,0.0275 -0.114949,0.0959 -0.114949,0.15183 0,0.056 -0.102403,0.22901 -0.227554,0.38453 -0.125142,0.15551 -0.225509,0.30385 -0.223028,0.32965 0.0057,0.0565 -0.213321,0.40775 -0.448814,0.72069 -0.09424,0.12526 -0.291913,0.38826 -0.439252,0.58446 -0.147348,0.19619 -0.250261,0.37673 -0.228697,0.4012 0.02157,0.0245 -0.06626,0.17264 -0.19522,0.32928 -0.12893,0.15664 -0.218528,0.30283 -0.199113,0.32486 0.01938,0.022 0.270447,0.0507 0.557851,0.0638 0.462155,0.021 0.726129,0.0558 1.28887,0.17015 0.310607,0.0631 0.799799,0.23075 1.08559,0.37201 0.161596,0.0799 0.319673,0.13797 0.351285,0.12909 0.03163,-0.009 0.0575,0.0262 0.0575,0.078 0,0.0518 0.04314,0.0773 0.09579,0.0566 0.09536,-0.0375 0.698678,0.3127 1.20422,0.69888 0.276285,0.21105 0.337685,0.26849 0.749915,0.70167 0.136983,0.14393 0.249061,0.24195 0.249061,0.21781 0,-0.0693 0.692993,0.85743 0.839327,1.12241 0.0725,0.13137 0.147671,0.22099 0.166924,0.19913 0.0193,-0.0219 0.101178,0.10549 0.18205,0.28299 0.08085,0.17749 0.209444,0.39355 0.285709,0.48011 0.07631,0.0865 0.118638,0.1942 0.09415,0.23919 -0.02449,0.045 -0.01038,0.0818 0.03147,0.0818 0.07623,0 0.206614,0.33427 0.178132,0.45662 -0.0084,0.0359 0.02133,0.0653 0.06601,0.0653 0.0446,0 0.05985,0.0391 0.03382,0.087 -0.02603,0.0479 -0.01087,0.087 0.03382,0.087 0.0446,0 0.0751,0.0294 0.0678,0.0653 -0.0073,0.0359 0.02319,0.16307 0.06788,0.28267 0.142709,0.38205 0.328684,1.18198 0.328684,1.41375 0,0.12336 0.03901,0.23904 0.08666,0.25707 0.198837,0.0752 0.123748,3.80493 -0.08021,3.98259 -0.02749,0.0239 -0.05174,0.1022 -0.05393,0.17395 -0.0024,0.0718 -0.02409,0.18917 -0.04858,0.26093 -0.02449,0.0718 -0.102273,0.34572 -0.172829,0.60883 -0.07055,0.2631 -0.22778,0.67405 -0.349395,0.91323 -0.121599,0.23919 -0.292481,0.60122 -0.379719,0.80454 -0.08724,0.20329 -0.191489,0.36963 -0.231665,0.36963 -0.04014,0 -0.07307,0.0528 -0.07307,0.11717 0,0.0644 -0.06034,0.20177 -0.134113,0.30522 -0.0738,0.10344 -0.203078,0.28917 -0.287371,0.41273 -0.08429,0.12358 -0.248096,0.3472 -0.36401,0.49695 -0.115905,0.14974 -0.210742,0.32003 -0.210742,0.37841 0,0.0584 -0.07664,0.16708 -0.170314,0.24154 -0.09368,0.0745 -0.145401,0.1354 -0.114949,0.1354 0.03041,0 -0.0049,0.0782 -0.07875,0.17395 l -0.268217,0.34791 c -0.0738,0.0957 -0.134112,0.19343 -0.134112,0.21723 0,0.0238 -0.128897,0.24886 -0.286439,0.50011 -0.395808,0.63121 -0.419107,0.66492 -0.613995,0.88812 -0.09484,0.10862 -0.172423,0.23424 -0.172423,0.27916 0,0.0449 -0.11936,0.21298 -0.26524,0.37346 -0.145871,0.16047 -0.250009,0.31971 -0.231414,0.35386 0.01857,0.0342 -0.06893,0.18416 -0.194562,0.33334 -0.125613,0.14917 -0.228381,0.29175 -0.228381,0.31684 0,0.0756 -0.78851,1.29353 -0.934431,1.44338 -0.07461,0.0766 -0.114097,0.16375 -0.08776,0.19365 0.02636,0.0299 -0.0086,0.079 -0.07761,0.10903 -0.06901,0.0301 -0.201026,0.20712 -0.293292,0.39344 -0.09226,0.18631 -0.195885,0.33876 -0.23027,0.33876 -0.03439,0 -0.06253,0.0505 -0.06253,0.11234 0,0.0618 -0.120699,0.25758 -0.268216,0.43508 -0.147518,0.17751 -0.268217,0.34483 -0.268217,0.37182 0,0.0667 -0.383302,0.65304 -0.552684,0.8454 -0.07534,0.0856 -0.137008,0.19143 -0.137008,0.23523 0,0.0438 -0.08412,0.17511 -0.186939,0.2918 -0.102825,0.1167 -0.168831,0.23272 -0.146699,0.25784 0.02214,0.0251 -0.03171,0.0894 -0.119604,0.14274 -0.08791,0.0534 -0.159828,0.13451 -0.159828,0.18025 0,0.0906 -0.429002,0.76645 -0.730922,1.15162 -0.103774,0.13238 -0.18913,0.26936 -0.189697,0.30441 -8.11e-4,0.0687 -0.217327,0.39206 -0.554566,0.82941 -0.115906,0.15032 -0.210742,0.30537 -0.210742,0.34458 0,0.0768 -0.101608,0.23203 -0.346079,0.52873 -0.08498,0.10313 -0.256668,0.36363 -0.381543,0.57889 -0.280089,0.48285 -0.746769,1.16411 -0.824194,1.20316 -0.03163,0.0159 -0.0575,0.0706 -0.0575,0.12151 0,0.0509 -0.11281,0.25309 -0.250681,0.44937 -0.137877,0.19627 -0.35051,0.52489 -0.47251,0.73026 -0.122008,0.20536 -0.262958,0.40106 -0.313221,0.43487 -0.05026,0.0338 -0.139381,0.16606 -0.198029,0.29386 -0.105285,0.22945 -0.439774,0.72647 -0.700541,1.04098 -0.07376,0.089 -0.134108,0.20088 -0.134108,0.24871 0,0.0479 -0.03448,0.087 -0.07663,0.087 -0.04215,0 -0.07663,0.042 -0.07663,0.0932 0,0.0513 -0.04311,0.14676 -0.09579,0.21224 -0.05269,0.0654 -0.182005,0.26085 -0.287375,0.43416 -0.10537,0.1733 -0.330085,0.51811 -0.499366,0.76623 -0.169283,0.24812 -0.406744,0.61747 -0.527697,0.82078 -0.120949,0.2033 -0.241082,0.37069 -0.266962,0.37198 -0.02588,9.2e-4 -0.131575,0.15785 -0.234882,0.34791 -0.103305,0.19006 -0.215383,0.34555 -0.249058,0.34555 -0.03367,0 -0.06123,0.0565 -0.06123,0.12553 0,0.069 -0.07759,0.18722 -0.172424,0.26261 -0.09483,0.0754 -0.160715,0.15852 -0.146403,0.18473 0.03151,0.0577 -0.137344,0.3304 -0.619928,1.00106 -0.200202,0.27823 -0.364004,0.53077 -0.364004,0.56119 0,0.0895 -0.306204,0.50509 -0.309921,0.42065 -0.0019,-0.0423 -0.07166,0.0698 -0.155097,0.24919 -0.08344,0.17939 -0.185371,0.32617 -0.226511,0.32617 -0.04114,0 -0.0748,0.0587 -0.0748,0.13046 0,0.0718 -0.03448,0.13046 -0.07664,0.13046 -0.04215,0 -0.07663,0.0565 -0.07663,0.12553 0,0.069 -0.0776,0.18722 -0.172425,0.26261 -0.09483,0.0754 -0.160714,0.15851 -0.146402,0.18473 0.02685,0.0491 -0.168647,0.38756 -0.370869,0.64192 -0.265513,0.33397 -0.613066,0.86816 -0.613066,0.94229 0,0.0439 -0.12033,0.21255 -0.267398,0.37474 -0.147071,0.16219 -0.267767,0.32525 -0.268216,0.36238 -0.0013,0.10726 -0.563072,0.93273 -0.634776,0.93273 -0.03563,0 -0.04748,0.0317 -0.02632,0.0707 0.02116,0.0388 -0.04392,0.18563 -0.144636,0.32615 -0.100714,0.14053 -0.253363,0.35336 -0.339224,0.47295 -0.08586,0.11959 -0.276756,0.37796 -0.42421,0.57415 -0.147454,0.1962 -0.251168,0.37593 -0.230472,0.39942 0.02069,0.0235 -0.0582,0.15651 -0.175319,0.2956 -0.11712,0.13909 -0.213779,0.27247 -0.214798,0.29638 -0.004,0.0933 -0.606291,0.95674 -0.667374,0.95674 -0.03564,0 -0.04748,0.0318 -0.02632,0.0707 0.02116,0.0388 -0.0443,0.18563 -0.145478,0.32616 -0.101175,0.14053 -0.245772,0.34683 -0.321327,0.45847 -0.07556,0.11163 -0.258071,0.36 -0.405589,0.55192 -0.147519,0.19193 -0.268216,0.37989 -0.268216,0.4177 0,0.0864 -1.045142,1.68728 -1.127258,1.72659 -0.03331,0.0159 -0.06055,0.0701 -0.06055,0.12027 0,0.0502 -0.07425,0.16435 -0.164992,0.25368 -0.09075,0.0893 -0.137438,0.16241 -0.103761,0.16241 0.03368,0 -0.02139,0.0942 -0.122381,0.20924 -0.262883,0.29958 -0.375197,0.46738 -0.375197,0.56055 0,0.0447 -0.05172,0.10387 -0.114951,0.1314 -0.06322,0.0275 -0.114949,0.10421 -0.114949,0.17037 0,0.0662 -0.09483,0.23675 -0.21074,0.37911 -0.115907,0.14234 -0.245226,0.32079 -0.287374,0.39655 -0.263345,0.47337 -0.775176,1.26274 -0.898708,1.38603 -0.08025,0.0801 -0.143641,0.16815 -0.140872,0.19569 0.0028,0.0275 -0.0492,0.11857 -0.115496,0.20228 -0.286253,0.36148 -0.492354,0.68037 -0.49244,0.76192 -5.1e-5,0.0483 -0.07863,0.18532 -0.1746,0.30442 -0.09598,0.1191 -0.397274,0.5688 -0.669546,0.99933 -0.57612,0.91099 -0.669708,1.04903 -0.891331,1.3147 -0.09042,0.1084 -0.28009,0.38438 -0.421481,0.6133 -0.352285,0.57038 -0.345657,0.56015 -0.562454,0.86778 -0.106005,0.15041 -0.192738,0.29885 -0.192738,0.32987 0,0.031 -0.146559,0.27509 -0.325691,0.54241 -0.179129,0.26732 -0.427659,0.64725 -0.55229,0.8443 -0.124632,0.19705 -0.271191,0.40999 -0.325691,0.4732 -0.0545,0.0632 -0.09909,0.14313 -0.09909,0.17758 0,0.0344 -0.120697,0.20787 -0.268216,0.38538 -0.147518,0.17749 -0.268216,0.345 -0.268216,0.37222 0,0.0272 -0.0431,0.10172 -0.09579,0.16553 -0.05268,0.0638 -0.285456,0.36051 -0.517271,0.65934 -0.571123,0.73622 -2.626565,3.0774 -3.125047,3.55948 -0.221731,0.21442 -0.497289,0.44547 -0.612351,0.51343 -0.115062,0.0679 -0.278173,0.20759 -0.362468,0.31028 -0.209119,0.25477 -0.728015,0.68097 -0.728015,0.59797 0,-0.037 -0.05369,0.0197 -0.119294,0.12604 -0.06562,0.10632 -0.155483,0.1933 -0.199713,0.1933 -0.04423,0 -0.206077,0.11141 -0.359662,0.24758 -0.347483,0.30807 -1.620323,1.16077 -1.620323,1.08548 0,-0.0305 -0.06897,0.0155 -0.153264,0.10203 -0.0843,0.0866 -0.153267,0.12497 -0.153267,0.0853 0,-0.0397 -0.08621,0.0198 -0.191582,0.13214 -0.105371,0.11235 -0.191583,0.17522 -0.191583,0.1397 0,-0.0355 -0.09873,0.0152 -0.219391,0.11274 -0.120665,0.0975 -0.241362,0.15236 -0.268216,0.12189 -0.02685,-0.0305 -0.04882,-0.007 -0.04882,0.0512 0,0.0586 -0.03154,0.0845 -0.07008,0.0574 -0.03855,-0.0271 -0.08165,-0.0196 -0.09579,0.0167 -0.03641,0.0932 -0.954071,0.57312 -1.095807,0.57312 -0.06474,0 -0.117708,0.0326 -0.117708,0.0725 0,0.0399 -0.02586,0.0678 -0.05747,0.0621 -0.03161,-0.006 -0.08334,-9.2e-4 -0.114949,0.0109 -0.03161,0.0117 -0.08334,0.0277 -0.11495,0.0357 -0.03161,0.008 -0.169551,0.0824 -0.306532,0.16532 -0.136981,0.0829 -0.249057,0.12921 -0.249057,0.10284 0,-0.0264 -0.09942,0.0104 -0.220921,0.0817 -0.121506,0.0713 -0.335628,0.1526 -0.475823,0.18064 -0.140195,0.028 -0.293971,0.0877 -0.34172,0.13273 -0.04775,0.045 -0.109507,0.0561 -0.13724,0.0246 -0.02774,-0.0315 -0.05043,-0.0181 -0.05043,0.0297 0,0.0479 -0.0431,0.0931 -0.09579,0.10065 -0.279284,0.0399 -0.440203,0.0843 -0.823805,0.22737 -0.231815,0.0865 -0.454243,0.19155 -0.494285,0.23351 -0.04004,0.042 -0.114317,0.0763 -0.165061,0.0763 -0.05074,0 -0.310557,0.14004 -0.577366,0.31121 -0.266806,0.17116 -0.519312,0.31793 -0.561126,0.32615 -0.04181,0.008 -0.122414,0.0639 -0.179112,0.12367 -0.0567,0.0598 -0.145806,0.10873 -0.198018,0.10873 -0.05221,0 -0.196307,0.11038 -0.320215,0.24531 -0.123909,0.13492 -0.380472,0.36628 -0.570139,0.51413 -0.189667,0.14785 -0.399405,0.34078 -0.466085,0.42874 -0.06668,0.088 -0.221864,0.26223 -0.344851,0.38728 -0.122984,0.12504 -0.361548,0.41286 -0.530142,0.63961 -0.168592,0.22674 -0.395557,0.52022 -0.504368,0.65217 -0.108809,0.13195 -0.367015,0.52905 -0.57379,0.88246 -0.206775,0.35341 -0.462597,0.74638 -0.568495,0.87326 -0.34786,0.4168 -0.50296,0.63774 -0.509663,0.72604 -0.0036,0.0479 -0.08895,0.13532 -0.18959,0.19441 -0.100641,0.0591 -0.152468,0.10801 -0.115174,0.10872 0.0373,9.2e-4 -0.03168,0.0892 -0.153267,0.19673 -0.121589,0.1075 -0.28254,0.25427 -0.357666,0.32616 -0.07513,0.0719 -0.161339,0.13597 -0.191584,0.1424 -0.218779,0.0466 -0.391319,0.15102 -0.356138,0.21563 0.02309,0.0424 -0.01178,0.082 -0.07749,0.088 -0.168497,0.0154 -0.201808,0.0271 -0.502638,0.17621 -0.339177,0.1682 -2.137947,0.40159 -2.23615,0.29013 z m 0.151027,-2.21597 c 0.315578,-0.16255 0.562759,-0.37587 0.553586,-0.47773 -0.0024,-0.0266 0.03177,-0.0965 0.07591,-0.15531 0.340626,-0.45413 0.992128,-1.42473 0.993782,-1.48054 0.0011,-0.0379 0.04515,-0.12731 0.09784,-0.19871 0.142394,-0.19297 0.221052,-0.30215 0.527876,-0.73272 0.153348,-0.2152 0.353588,-0.48912 0.444972,-0.60871 0.09139,-0.1196 0.276281,-0.3697 0.410878,-0.55578 0.333358,-0.46087 1.739069,-2.08064 1.739069,-2.00389 0,0.034 0.120697,-0.0836 0.268216,-0.26107 0.147518,-0.17752 0.268216,-0.30395 0.268216,-0.28093 0,0.0409 0.23848,-0.1789 0.716247,-0.66003 0.130627,-0.13155 0.281548,-0.23918 0.335377,-0.23918 0.05383,0 0.09787,-0.0386 0.09787,-0.0858 0,-0.0472 0.115913,-0.14078 0.257585,-0.20795 0.141674,-0.0672 0.328176,-0.19075 0.414455,-0.27459 0.421685,-0.4098 2.001978,-1.23369 2.450757,-1.27772 0.05268,-0.006 0.09579,-0.0335 0.09579,-0.0629 0,-0.0294 0.163805,-0.10536 0.364008,-0.16877 0.200204,-0.0634 0.642386,-0.2285 0.982625,-0.36689 0.340242,-0.13838 0.643422,-0.25161 0.673737,-0.25161 0.03032,0 0.27639,-0.11741 0.546837,-0.26093 0.270448,-0.1435 0.544888,-0.26092 0.609869,-0.26092 0.06498,0 0.118146,-0.0391 0.118146,-0.087 0,-0.0479 0.06897,-0.087 0.153265,-0.087 0.0843,0 0.153267,-0.0338 0.153267,-0.0751 0,-0.0413 0.198288,-0.17908 0.44064,-0.30615 0.528786,-0.27728 1.04756,-0.59929 1.20619,-0.74871 0.06365,-0.0599 0.115728,-0.08 0.115728,-0.0446 0,0.0354 0.118397,-0.038 0.263104,-0.1633 0.144706,-0.12527 0.297014,-0.22776 0.338461,-0.22776 0.04145,0 0.08686,-0.0294 0.100907,-0.0653 0.03253,-0.0831 0.573854,-0.5436 0.638969,-0.5436 0.02689,0 0.09519,-0.049 0.151758,-0.10872 0.214073,-0.22627 0.599853,-0.54915 0.831348,-0.6958 0.132147,-0.0837 0.214725,-0.1522 0.183503,-0.1522 -0.03122,0 0.227953,-0.28297 0.575944,-0.62881 0.34799,-0.34587 0.672679,-0.66876 0.721531,-0.71756 0.28186,-0.28158 1.046105,-1.1361 1.03376,-1.1559 -0.0315,-0.0505 0.183264,-0.26058 0.232136,-0.22707 0.02858,0.0196 0.07199,-0.0334 0.09648,-0.11785 0.02448,-0.0844 0.208013,-0.35782 0.407839,-0.60759 0.199828,-0.24977 0.535748,-0.69779 0.746488,-0.9956 0.21074,-0.29783 0.452231,-0.62373 0.536646,-0.72426 0.08441,-0.10051 0.219589,-0.29727 0.300388,-0.43723 0.170727,-0.29572 0.24899,-0.40775 0.484885,-0.6941 0.09483,-0.11511 0.172426,-0.25021 0.172426,-0.30022 0,-0.05 0.02586,-0.091 0.05747,-0.0911 0.03161,0 0.16093,-0.17537 0.287375,-0.38948 0.126444,-0.2141 0.257799,-0.39015 0.291896,-0.39119 0.0341,-9.2e-4 0.0454,-0.0324 0.02511,-0.0697 -0.0203,-0.0373 0.08342,-0.22317 0.230453,-0.41314 0.147039,-0.18996 0.334727,-0.49215 0.417089,-0.67155 0.08236,-0.17938 0.18353,-0.32615 0.224823,-0.32615 0.04129,0 0.07507,-0.0587 0.07507,-0.13046 0,-0.0718 0.02586,-0.13073 0.05747,-0.13107 0.03161,0 0.142843,-0.14709 0.247183,-0.32615 0.104338,-0.17906 0.294005,-0.48742 0.421481,-0.68523 0.127477,-0.19782 0.283501,-0.44889 0.346725,-0.55795 0.06322,-0.10904 0.175297,-0.2701 0.249057,-0.35788 0.07376,-0.0878 0.134107,-0.185 0.134107,-0.21605 0,-0.031 0.120698,-0.18948 0.268216,-0.35209 0.147519,-0.1626 0.268216,-0.32691 0.268216,-0.36511 0,-0.0382 0.06034,-0.15046 0.134107,-0.24942 0.279732,-0.37532 0.368303,-0.50662 0.511129,-0.7577 0.164652,-0.28945 0.181174,-0.31459 0.487319,-0.74152 0.120062,-0.16743 0.301683,-0.4414 0.403605,-0.60883 0.101922,-0.16743 0.272147,-0.41577 0.378278,-0.55187 0.106134,-0.13609 0.175726,-0.26605 0.154654,-0.28879 -0.02107,-0.0227 0.02203,-0.0797 0.09579,-0.12651 0.07376,-0.0469 0.134107,-0.13512 0.134107,-0.19616 0,-0.061 0.08869,-0.20555 0.1971,-0.32113 0.108404,-0.11559 0.269937,-0.35725 0.358958,-0.53702 0.08902,-0.17977 0.187672,-0.32686 0.219218,-0.32686 0.03155,0 0.07726,-0.0685 0.101574,-0.15221 0.02432,-0.0838 0.13872,-0.2758 0.254222,-0.42685 0.447662,-0.58545 0.513219,-0.68422 0.49601,-0.74732 -0.0098,-0.0359 0.01669,-0.0653 0.05884,-0.0653 0.04215,0 0.07663,-0.042 0.07663,-0.0932 0,-0.0513 0.0431,-0.14813 0.09579,-0.21526 0.168459,-0.21468 0.683514,-0.98976 1.092021,-1.64334 0.08429,-0.13487 0.233682,-0.34715 0.331972,-0.47174 0.09829,-0.12459 0.23504,-0.33477 0.303894,-0.46706 0.06885,-0.1323 0.152241,-0.24053 0.185303,-0.24053 0.03306,0 0.06011,-0.0587 0.06011,-0.13047 0,-0.0718 0.03448,-0.13046 0.07663,-0.13046 0.04215,0 0.07663,-0.0408 0.07663,-0.0907 0,-0.0499 0.03643,-0.13791 0.08095,-0.19569 0.04452,-0.0578 0.272934,-0.39781 0.507574,-0.75563 0.234639,-0.35781 0.482711,-0.69903 0.551266,-0.75826 0.06856,-0.0592 0.09743,-0.10895 0.06415,-0.11046 -0.06279,-0.003 -0.02842,-0.0598 0.275514,-0.45653 0.09958,-0.12998 0.279862,-0.41374 0.400626,-0.63058 0.120761,-0.21684 0.247177,-0.39424 0.280918,-0.39424 0.03374,0 0.06135,-0.0587 0.06135,-0.13047 0,-0.0718 0.03216,-0.13046 0.07146,-0.13046 0.03931,0 0.09095,-0.0685 0.114749,-0.15221 0.0238,-0.0837 0.139309,-0.26962 0.256679,-0.41313 0.117369,-0.14351 0.297236,-0.39792 0.39971,-0.56534 0.102473,-0.16743 0.239306,-0.3521 0.304077,-0.41037 0.06477,-0.0583 0.08944,-0.10719 0.05481,-0.10872 -0.03462,-0.002 -0.01738,-0.0602 0.03832,-0.1305 0.327652,-0.4133 0.982544,-1.43012 0.982544,-1.52556 0,-0.0474 0.03216,-0.0862 0.07147,-0.0862 0.03931,0 0.09095,-0.0685 0.114749,-0.15221 0.0238,-0.0837 0.138249,-0.26962 0.254322,-0.41313 0.116075,-0.14351 0.297211,-0.40744 0.402525,-0.5865 0.105315,-0.17905 0.217342,-0.32582 0.248956,-0.32616 0.03161,-2.4e-4 0.05747,-0.0414 0.05747,-0.0912 0,-0.0499 0.03328,-0.13792 0.07397,-0.19569 0.04069,-0.0578 0.171152,-0.24204 0.289933,-0.40947 0.11878,-0.16743 0.301026,-0.45091 0.404988,-0.62997 0.103965,-0.17906 0.214888,-0.32583 0.246501,-0.32617 0.03161,-2.4e-4 0.05747,-0.0593 0.05747,-0.13105 0,-0.0718 0.03216,-0.13046 0.07147,-0.13046 0.03931,0 0.09095,-0.0685 0.114749,-0.15221 0.0238,-0.0837 0.138205,-0.27028 0.254222,-0.41458 0.116017,-0.14432 0.330413,-0.45743 0.476434,-0.69581 0.146021,-0.23839 0.301202,-0.48128 0.344848,-0.53977 0.04365,-0.0584 0.182812,-0.26605 0.309255,-0.46122 0.126445,-0.19516 0.324732,-0.48515 0.44064,-0.64441 0.115907,-0.15926 0.210742,-0.32914 0.210742,-0.37751 0,-0.0483 0.05172,-0.11046 0.114949,-0.13799 0.06322,-0.0275 0.114948,-0.10393 0.114948,-0.16977 0,-0.0658 0.07344,-0.19428 0.163208,-0.2854 0.08976,-0.0911 0.243764,-0.30268 0.342224,-0.4701 0.09846,-0.16744 0.282461,-0.46098 0.408889,-0.65232 0.126431,-0.19135 0.365576,-0.56317 0.531432,-0.82627 0.165856,-0.2631 0.367271,-0.55664 0.44759,-0.65232 0.08031,-0.0957 0.151985,-0.20407 0.159274,-0.2409 0.01388,-0.0701 0.118636,-0.22487 0.339561,-0.50167 0.07232,-0.0906 0.217637,-0.31285 0.322908,-0.49387 0.371449,-0.63868 0.666546,-1.08971 0.889943,-1.36021 0.124259,-0.15045 0.22607,-0.30323 0.226273,-0.33952 0,-0.0363 0.09519,-0.18679 0.21109,-0.33443 0.115906,-0.14764 0.210742,-0.30529 0.210742,-0.35032 0,-0.045 0.03447,-0.10981 0.07664,-0.14394 0.04217,-0.0341 0.111121,-0.12472 0.153268,-0.20129 0.04217,-0.0766 0.190783,-0.31141 0.330305,-0.52186 0.139513,-0.21044 0.311944,-0.47525 0.383165,-0.58848 0.181952,-0.28924 0.598262,-0.89586 0.739137,-1.07702 0.06512,-0.0837 0.118371,-0.19135 0.118371,-0.23919 0,-0.0479 0.02814,-0.087 0.06253,-0.087 0.03439,0 0.136132,-0.14677 0.226094,-0.32616 0.08997,-0.17939 0.305124,-0.52185 0.478131,-0.76104 0.173007,-0.23918 0.364391,-0.50382 0.425279,-0.58807 0.0609,-0.0842 0.110732,-0.17398 0.110732,-0.19938 0,-0.0522 0.0622,-0.14392 0.350377,-0.51718 0.110812,-0.14351 0.250626,-0.36856 0.310679,-0.50011 0.06009,-0.13155 0.142806,-0.23918 0.183874,-0.23918 0.04104,0 0.07469,-0.0587 0.07469,-0.13046 0,-0.0718 0.03447,-0.13047 0.07664,-0.13047 0.04217,0 0.07664,-0.0408 0.07664,-0.0907 0,-0.0499 0.03528,-0.13792 0.07842,-0.19569 0.04314,-0.0578 0.248932,-0.35945 0.457354,-0.67039 0.208431,-0.31093 0.431775,-0.63383 0.496346,-0.71754 0.06455,-0.0837 0.117381,-0.17133 0.117381,-0.1947 0,-0.04 0.07056,-0.14275 0.409076,-0.59541 0.07745,-0.10361 0.196988,-0.29601 0.265581,-0.42755 0.06861,-0.13155 0.151775,-0.23919 0.184831,-0.23919 0.03309,0 0.06009,-0.0587 0.06009,-0.13046 0,-0.0718 0.03447,-0.13046 0.07664,-0.13046 0.04217,0 0.07664,-0.0408 0.07664,-0.0907 0,-0.0874 0.06131,-0.18842 0.306536,-0.50516 0.06326,-0.0816 0.201156,-0.29384 0.306535,-0.47153 0.105363,-0.1777 0.21744,-0.32335 0.249052,-0.32368 0.03163,-2.4e-4 0.0575,-0.0593 0.0575,-0.13106 0,-0.0718 0.03447,-0.13046 0.07664,-0.13046 0.04217,0 0.07664,-0.0587 0.07664,-0.13046 0,-0.0718 0.03447,-0.13046 0.07664,-0.13046 0.04217,0 0.06958,-0.0294 0.06091,-0.0653 -0.0087,-0.0359 0.06034,-0.25612 0.153267,-0.48943 0.09296,-0.2333 0.16922,-0.46814 0.169479,-0.52184 0,-0.0538 0.05596,-0.21509 0.123691,-0.3586 0.127154,-0.26923 0.189243,-1.87339 0.09428,-2.43531 -0.0738,-0.43663 -0.15047,-0.77387 -0.217505,-0.95673 -0.218577,-0.59624 -0.423017,-1.06396 -0.522736,-1.19591 -0.06326,-0.0837 -0.09391,-0.15222 -0.06812,-0.15222 0.07915,0 -1.20748,-1.47844 -1.288424,-1.48051 -0.04169,-9.2e-4 -0.162035,-0.0785 -0.267406,-0.17201 -0.105371,-0.0936 -0.249474,-0.17096 -0.320216,-0.17202 -0.07072,-9.3e-4 -0.17454,-0.054 -0.23066,-0.11773 -0.08566,-0.0972 -0.264526,-0.17413 -0.579114,-0.24898 -0.03179,-0.007 -0.257001,-0.0609 -0.50045,-0.1186 -0.415004,-0.0983 -1.437223,-0.0985 -1.779733,-2.4e-4 -0.08429,0.0241 -0.292384,0.0825 -0.462423,0.12957 -0.392491,0.10874 -1.341154,0.61187 -1.491713,0.79115 -0.02108,0.0251 -0.223872,0.211 -0.450655,0.41312 -0.226783,0.20213 -0.385938,0.36752 -0.353669,0.36752 0.03228,0 -0.0322,0.0811 -0.143252,0.18026 -0.111056,0.0991 -0.202081,0.22635 -0.202292,0.28267 0,0.0563 -0.120894,0.25136 -0.268214,0.4334 -0.14731,0.18206 -0.267846,0.36796 -0.267846,0.41314 0,0.0452 -0.03448,0.0821 -0.07664,0.0821 -0.04215,0 -0.07663,0.05 -0.07663,0.11108 0,0.0611 -0.103453,0.23963 -0.229899,0.39675 -0.126443,0.15713 -0.230358,0.31262 -0.230925,0.34554 -0.0013,0.07 -0.269741,0.47126 -0.515901,0.77082 -0.09464,0.11518 -0.22049,0.31544 -0.279659,0.44504 -0.05917,0.12959 -0.192593,0.33954 -0.29649,0.46656 -0.103898,0.12702 -0.269511,0.36185 -0.368028,0.52186 -0.09852,0.16 -0.201492,0.31048 -0.228833,0.33439 -0.02734,0.0239 -0.140955,0.20005 -0.252472,0.3914 -0.384167,0.65916 -1.248376,1.98989 -1.448602,2.2306 -0.07376,0.0886 -0.134267,0.19058 -0.134463,0.22645 -2.14e-4,0.0359 -0.09868,0.18428 -0.218852,0.32977 -0.120174,0.14549 -0.309313,0.41947 -0.420309,0.60883 -0.380562,0.64923 -0.464426,0.77998 -0.778749,1.21404 -0.173198,0.23919 -0.393302,0.58165 -0.489117,0.76104 -0.09582,0.17939 -0.205883,0.32616 -0.244594,0.32616 -0.03871,0 -0.07039,0.0374 -0.07039,0.0829 0,0.11508 -1.083494,1.75976 -1.627227,2.47004 -0.115234,0.15053 -0.210069,0.32124 -0.210743,0.37936 -6.44e-4,0.0581 -0.06294,0.14314 -0.138365,0.18896 -0.07543,0.0458 -0.186448,0.19396 -0.246713,0.32922 -0.132235,0.29677 -0.52131,0.90301 -0.669077,1.04252 -0.05872,0.0554 -0.103446,0.12481 -0.09939,0.15415 0.01092,0.079 -0.238948,0.47529 -0.449006,0.71216 -0.100989,0.11389 -0.159591,0.20705 -0.130224,0.20705 0.02937,0 -0.05165,0.12721 -0.180039,0.28268 -0.128385,0.15547 -0.233588,0.32344 -0.233784,0.37327 -2.14e-4,0.0498 -0.12105,0.23582 -0.268569,0.41333 -0.147519,0.1775 -0.268216,0.34212 -0.268216,0.36583 0,0.0952 -0.555581,0.91323 -0.620253,0.91323 -0.0382,0 -0.06082,0.0325 -0.05029,0.0723 0.02342,0.0884 -0.225653,0.49861 -0.459799,0.75735 -0.09483,0.10479 -0.172424,0.22764 -0.172424,0.273 0,0.0454 -0.103454,0.19496 -0.229899,0.33246 -0.126443,0.13748 -0.22994,0.29158 -0.229992,0.34243 -5.1e-5,0.0508 -0.08372,0.2028 -0.185924,0.33768 -0.102208,0.13488 -0.314807,0.45777 -0.472444,0.71755 -0.157636,0.25978 -0.315363,0.47232 -0.350506,0.47232 -0.03514,0 -0.0639,0.0514 -0.0639,0.11407 0,0.0628 -0.0631,0.19093 -0.140233,0.2849 -0.07713,0.094 -0.201793,0.27747 -0.27703,0.40779 -0.07524,0.13032 -0.184554,0.23695 -0.242929,0.23695 -0.05837,0 -0.106136,0.0401 -0.106136,0.0891 0,0.26214 -1.012035,0.43962 -1.513504,0.26544 -0.01053,-0.004 -0.03708,-0.006 -0.05898,-0.005 -0.05944,0.003 -0.25567,-0.18097 -0.578775,-0.54183 -0.339317,-0.37895 -0.532701,-1.13159 -0.37609,-1.46371 0.04813,-0.10207 0.06981,-0.20568 0.04817,-0.23023 -0.0495,-0.0562 0.213547,-0.63531 0.391398,-0.86166 0.0735,-0.0935 0.253112,-0.36486 0.399133,-0.60292 0.14602,-0.23805 0.301204,-0.48068 0.34485,-0.53918 0.04365,-0.0585 0.182809,-0.26665 0.309254,-0.46258 0.126444,-0.19594 0.341355,-0.50429 0.477579,-0.68524 0.136223,-0.18095 0.22531,-0.35439 0.197969,-0.38542 -0.02734,-0.031 -0.0086,-0.0564 0.04159,-0.0564 0.05022,0 0.124415,-0.0988 0.164888,-0.21966 0.04048,-0.12082 0.125831,-0.24243 0.189687,-0.27024 0.06386,-0.0278 0.116098,-0.10508 0.116098,-0.17172 0,-0.0666 0.02895,-0.12117 0.06434,-0.12117 0.03538,0 0.105091,-0.0881 0.154906,-0.19569 0.13266,-0.28661 0.749501,-1.22725 0.987731,-1.5062 0.05269,-0.0617 0.09579,-0.13487 0.09579,-0.16261 0,-0.0277 0.09483,-0.17126 0.210741,-0.3189 0.115908,-0.14764 0.210742,-0.30529 0.210742,-0.35032 0,-0.045 0.03448,-0.10981 0.07663,-0.14394 0.04215,-0.0342 0.111119,-0.12472 0.153265,-0.20129 0.04215,-0.0766 0.190785,-0.31141 0.330304,-0.52186 0.13952,-0.21044 0.311944,-0.47525 0.383167,-0.58848 0.181946,-0.28924 0.598256,-0.89586 0.739141,-1.07702 0.06511,-0.0837 0.118366,-0.19135 0.118366,-0.23919 0,-0.0479 0.03448,-0.087 0.07664,-0.087 0.04215,0 0.07663,-0.042 0.07663,-0.0932 0,-0.0513 0.0431,-0.14812 0.09579,-0.21526 0.168458,-0.21468 0.683514,-0.98976 1.092019,-1.64334 0.0843,-0.13486 0.234328,-0.34776 0.333405,-0.47308 0.09908,-0.12534 0.229281,-0.33552 0.289343,-0.46707 0.06006,-0.13155 0.142801,-0.23918 0.183866,-0.23918 0.04107,0 0.07467,-0.0587 0.07467,-0.13046 0,-0.0718 0.03448,-0.13047 0.07663,-0.13047 0.04215,0 0.07663,-0.042 0.07663,-0.0932 0,-0.0513 0.0431,-0.14526 0.09579,-0.2089 0.05269,-0.0637 0.285458,-0.41294 0.517272,-0.7762 0.231815,-0.36326 0.447347,-0.66064 0.478958,-0.66085 0.03161,-1.7e-4 0.05747,-0.039 0.05747,-0.0863 0,-0.0473 0.06035,-0.168 0.134109,-0.26825 0.07376,-0.10025 0.188315,-0.2552 0.254569,-0.34435 0.06626,-0.0891 0.219692,-0.34025 0.340972,-0.55801 0.12128,-0.21777 0.248119,-0.39594 0.281862,-0.39594 0.03375,0 0.06135,-0.0408 0.06135,-0.0907 0,-0.0989 0.02204,-0.13428 0.403737,-0.64865 0.141989,-0.19134 0.334085,-0.49078 0.42688,-0.66542 0.09279,-0.17465 0.22193,-0.34071 0.286971,-0.36903 0.06504,-0.0284 0.100448,-0.0842 0.07868,-0.12419 -0.02177,-0.0399 0.06288,-0.2 0.188116,-0.35561 0.125228,-0.15561 0.371729,-0.52436 0.547778,-0.81943 0.176048,-0.29508 0.36509,-0.58822 0.420091,-0.65144 0.055,-0.0632 0.100166,-0.14149 0.10036,-0.17395 2.15e-4,-0.0325 0.09629,-0.17644 0.213537,-0.31994 0.117248,-0.14352 0.292327,-0.4077 0.389061,-0.58709 0.09673,-0.17939 0.207551,-0.32616 0.246262,-0.32616 0.03871,0 0.07039,-0.0565 0.07039,-0.12553 0,-0.069 0.07665,-0.18646 0.170317,-0.26093 0.09367,-0.0745 0.136781,-0.13664 0.09579,-0.13816 -0.04099,-0.002 -0.0228,-0.0504 0.04043,-0.10872 0.06322,-0.0583 0.235648,-0.31136 0.383166,-0.5624 0.147519,-0.25105 0.294078,-0.45653 0.325689,-0.45662 0.03161,-9e-5 0.05747,-0.0429 0.05747,-0.0952 0,-0.14914 0.279972,-0.51497 0.341063,-0.44564 0.03018,0.0342 0.04338,0.0207 0.02933,-0.03 -0.02552,-0.0922 0.221445,-0.50489 0.510889,-0.85367 0.0843,-0.10157 0.153267,-0.20831 0.153267,-0.23718 0,-0.0747 0.445583,-0.76054 0.983069,-1.51306 0.102506,-0.14351 0.187414,-0.29655 0.188687,-0.34009 0.0013,-0.0435 0.05714,-0.11397 0.12414,-0.15653 0.06699,-0.0425 0.122613,-0.12435 0.123594,-0.18176 8.11e-4,-0.0574 0.121672,-0.2555 0.268216,-0.44016 0.146537,-0.18468 0.266473,-0.3608 0.26653,-0.39139 4.8e-5,-0.0306 0.07761,-0.15962 0.172423,-0.28672 0.09478,-0.12709 0.224058,-0.3178 0.287282,-0.42379 0.06326,-0.10599 0.15107,-0.23683 0.19522,-0.29077 0.0442,-0.0539 0.197336,-0.29375 0.34041,-0.53294 0.143073,-0.23918 0.323063,-0.48647 0.39996,-0.54954 0.07688,-0.0631 0.119985,-0.15114 0.09571,-0.1957 -0.02425,-0.0445 -0.01103,-0.081 0.02944,-0.081 0.04047,0 0.146212,-0.12721 0.234966,-0.28268 0.08875,-0.15547 0.249361,-0.41965 0.356913,-0.58708 0.107545,-0.16743 0.253862,-0.39705 0.325148,-0.51028 0.182828,-0.29038 0.598821,-0.89644 0.739259,-1.07702 0.06512,-0.0837 0.1007,-0.15222 0.07907,-0.15222 -0.02157,0 0.04882,-0.15843 0.156544,-0.35207 0.107706,-0.19364 0.302537,-0.6731 0.432959,-1.06545 0.215754,-0.64904 0.237464,-0.8075 0.240756,-1.75708 0.0041,-1.11813 -0.0091,-1.22318 -0.241632,-1.95694 -0.431702,-1.36215 -1.139641,-2.38354 -2.099155,-3.02855 -1.87839,-1.26268 -4.353133,-0.97242 -5.923421,0.69475 -0.339448,0.36039 -1.841582,2.58183 -4.787088,7.07943 -2.360835,3.60483 -4.292423,6.59272 -4.292423,6.63976 0,0.047 -0.06875,0.14016 -0.152779,0.20695 -0.08403,0.0668 -0.135445,0.14113 -0.114263,0.16518 0.02117,0.024 -0.06259,0.16379 -0.186169,0.31055 -0.123577,0.14677 -0.207146,0.28675 -0.185706,0.31109 0.02143,0.0243 -0.03294,0.0879 -0.120849,0.14132 -0.08791,0.0534 -0.159831,0.14709 -0.159831,0.20821 0,0.0611 -0.103454,0.22362 -0.229899,0.36112 -0.126444,0.13749 -0.229897,0.29398 -0.229897,0.34777 0,0.0538 -0.06161,0.17366 -0.136921,0.2664 -0.07531,0.0927 -0.302485,0.43279 -0.504842,0.75569 -0.202357,0.3229 -0.401414,0.58709 -0.44235,0.58709 -0.04094,0 -0.05312,0.0391 -0.02707,0.087 0.02605,0.0479 0.01084,0.087 -0.03379,0.087 -0.04464,0 -0.08116,0.0444 -0.08116,0.0985 0,0.0542 -0.07124,0.16863 -0.158301,0.25433 -0.08706,0.0857 -0.162727,0.18815 -0.168139,0.22764 -0.01049,0.0766 -0.0916,0.2014 -0.303176,0.46649 -0.07232,0.0906 -0.224305,0.33243 -0.337735,0.53737 -0.113429,0.20492 -0.261164,0.43185 -0.328298,0.50428 -0.06713,0.0724 -0.165963,0.20942 -0.219619,0.30442 -0.05365,0.095 -0.169136,0.29993 -0.256627,0.45539 -0.08749,0.15547 -0.190147,0.28268 -0.228133,0.28268 -0.03799,0 -0.06906,0.0587 -0.06906,0.13046 0,0.0718 -0.03448,0.13046 -0.07663,0.13046 -0.04215,0 -0.07663,0.0444 -0.07663,0.0985 0,0.0542 -0.07124,0.16864 -0.158301,0.25434 -0.08706,0.0857 -0.162727,0.18814 -0.168141,0.22764 -0.01203,0.0879 -0.05272,0.14967 -0.397725,0.60421 -0.149634,0.19715 -0.272106,0.39284 -0.272157,0.43489 -4.9e-5,0.0421 -0.08372,0.18678 -0.185922,0.32166 -0.102208,0.13488 -0.314809,0.45778 -0.472444,0.71755 -0.157636,0.25978 -0.315364,0.47231 -0.350507,0.47231 -0.03514,0 -0.0639,0.0587 -0.0639,0.13047 0,0.0718 -0.03448,0.13046 -0.07663,0.13046 -0.04215,0 -0.07664,0.0408 -0.07664,0.0907 0,0.0893 -0.07119,0.20499 -0.315481,0.51283 -0.06815,0.0859 -0.289757,0.42545 -0.492472,0.75462 -0.202715,0.32915 -0.406175,0.64115 -0.452136,0.69331 -0.04596,0.0522 -0.218036,0.31644 -0.382388,0.58728 -0.164354,0.27085 -0.327577,0.49244 -0.362718,0.49244 -0.03514,0 -0.0639,0.0587 -0.0639,0.13046 0,0.0718 -0.03448,0.13046 -0.07664,0.13046 -0.04215,0 -0.07663,0.0408 -0.07663,0.0907 0,0.0938 -0.08034,0.22214 -0.347948,0.55567 -0.086,0.1072 -0.270643,0.39701 -0.410312,0.64404 -0.13967,0.24703 -0.284837,0.44915 -0.32259,0.44915 -0.03775,0 -0.06864,0.042 -0.06864,0.0932 0,0.0513 -0.0431,0.14474 -0.09579,0.20773 -0.218458,0.26123 -0.364007,0.48907 -0.364007,0.56983 0,0.0473 -0.03216,0.086 -0.07146,0.086 -0.03931,0 -0.0915,0.0716 -0.11599,0.1592 -0.0733,0.26214 -0.765626,1.03567 -1.045841,1.16852 -0.147738,0.07 -0.464503,0.11664 -0.729782,0.10736 -0.632043,-0.0221 -1.056461,-0.33514 -1.356045,-1.0002 -0.188485,-0.41842 -0.20912,-0.53831 -0.164672,-0.95673 0.02795,-0.26311 0.08741,-0.55664 0.132136,-0.65232 0.106167,-0.2271 0.538171,-0.86149 0.61203,-0.89874 0.03161,-0.0159 0.05747,-0.0676 0.05747,-0.11493 0,-0.0473 0.0431,-0.13749 0.09579,-0.20049 0.175463,-0.20982 0.330287,-0.43835 0.59293,-0.87522 0.143148,-0.23809 0.288141,-0.44596 0.322206,-0.4619 0.03406,-0.0159 0.06193,-0.0665 0.06193,-0.11239 0,-0.0901 4.29e-4,-0.0909 0.459155,-0.71336 0.170156,-0.23092 0.361492,-0.53425 0.425192,-0.67406 0.0637,-0.1398 0.149418,-0.25419 0.190483,-0.25419 0.04107,0 0.07482,-0.0489 0.07502,-0.10873 2.14e-4,-0.0598 0.09662,-0.22613 0.214287,-0.36964 0.117663,-0.14351 0.331025,-0.45662 0.474141,-0.6958 0.143113,-0.23919 0.288079,-0.44793 0.322144,-0.46387 0.03406,-0.0159 0.06193,-0.0666 0.06193,-0.11239 0,-0.0458 0.0337,-0.13067 0.07489,-0.18845 0.04119,-0.0578 0.212605,-0.30074 0.380922,-0.53993 0.168314,-0.23918 0.358765,-0.50337 0.423222,-0.58709 0.06446,-0.0837 0.117194,-0.19134 0.117194,-0.23918 0,-0.0479 0.03448,-0.087 0.07663,-0.087 0.04215,0 0.07664,-0.0414 0.07664,-0.0921 0,-0.0506 0.139217,-0.29524 0.309373,-0.54359 0.170156,-0.24835 0.444067,-0.64725 0.60869,-0.88643 0.283026,-0.41121 13.520821,-20.58076 16.440269,-25.04895 1.38174,-2.11474 1.695407,-2.71248 1.916935,-3.65297 0.160509,-0.68145 0.159991,-2.09394 -0.0011,-2.78322 -0.46854,-2.00583 -1.850406,-3.58754 -3.585577,-4.10413 -0.618526,-0.18414 -1.780357,-0.18186 -2.431157,0.005 -0.867072,0.24866 -1.71979,0.78657 -2.344301,1.47883 -0.396944,0.44002 -2.377993,3.39837 -6.821909,10.18738 -3.444388,5.26202 -6.32916,9.69452 -6.410611,9.84998 -0.08145,0.15547 -0.179167,0.28268 -0.217153,0.28268 -0.03799,0 -0.06906,0.039 -0.06906,0.0868 0,0.0757 -0.429143,0.80613 -0.650041,1.10641 -0.04288,0.0583 -0.164184,0.23065 -0.269554,0.383 -0.105373,0.15236 -0.286418,0.40337 -0.402324,0.55781 -0.115907,0.15443 -0.210742,0.31717 -0.210742,0.36163 0,0.0445 -0.06099,0.15671 -0.135533,0.24945 -0.07455,0.0927 -0.321709,0.46215 -0.549256,0.82092 -0.22755,0.35878 -0.442439,0.66536 -0.477533,0.68131 -0.03509,0.0159 -0.06381,0.0758 -0.06381,0.133 0,0.0572 -0.06713,0.15893 -0.149162,0.22604 -0.08204,0.0671 -0.13158,0.1543 -0.110093,0.19376 0.02149,0.0395 -0.01611,0.0958 -0.08357,0.12516 -0.06745,0.0294 -0.172288,0.16239 -0.232969,0.29556 -0.06068,0.13318 -0.154299,0.29478 -0.208042,0.35911 -0.05374,0.0643 -0.192973,0.2833 -0.309404,0.48661 -0.116432,0.2033 -0.24569,0.36964 -0.28724,0.36964 -0.04155,0 -0.06798,0.0294 -0.05872,0.0653 0.02459,0.0953 -0.554485,0.97848 -0.6416,0.97848 -0.04068,0 -0.05266,0.0391 -0.02661,0.087 0.02605,0.0479 0.01084,0.087 -0.03379,0.087 -0.04464,0 -0.08116,0.0501 -0.08116,0.11126 0,0.0612 -0.06712,0.16617 -0.14916,0.23328 -0.08204,0.0671 -0.13158,0.15431 -0.110092,0.19377 0.02149,0.0395 -0.01326,0.0945 -0.07721,0.12239 -0.06395,0.0279 -0.190398,0.19391 -0.280996,0.36903 -0.0906,0.17511 -0.212881,0.34969 -0.271747,0.38794 -0.05887,0.0383 -0.107027,0.12051 -0.107027,0.1828 0,0.0623 -0.103455,0.2361 -0.229899,0.38627 -0.126445,0.15017 -0.2299,0.30927 -0.2299,0.35356 0,0.0443 -0.02733,0.0936 -0.06074,0.10951 -0.03341,0.0159 -0.139674,0.17576 -0.236148,0.35515 -0.09648,0.17938 -0.207084,0.32615 -0.245795,0.32615 -0.03871,0 -0.07039,0.0587 -0.07039,0.13047 0,0.0718 -0.03448,0.13046 -0.07664,0.13046 -0.04215,0 -0.07663,0.0408 -0.07663,0.0907 0,0.0935 -0.08027,0.22026 -0.344848,0.54455 -0.0843,0.10332 -0.187751,0.25147 -0.229899,0.32923 -0.209606,0.3867 -0.505166,0.84278 -0.683032,1.05396 -0.109037,0.12946 -0.198248,0.27623 -0.198248,0.32616 0,0.0499 -0.02586,0.0913 -0.05747,0.0918 -0.03161,4.9e-4 -0.17629,0.21587 -0.321511,0.47837 -0.145221,0.26249 -0.291782,0.47726 -0.325691,0.47726 -0.03391,0 -0.06165,0.0408 -0.06165,0.0907 0,0.0499 -0.03424,0.13791 -0.07609,0.19569 -0.406102,0.56066 -0.625876,0.88982 -0.766326,1.14775 -0.09147,0.16798 -0.189846,0.30542 -0.218607,0.30542 -0.02876,0 -0.137543,0.15655 -0.241739,0.3479 -0.104197,0.19135 -0.215791,0.34791 -0.247991,0.34791 -0.0322,0 -0.05854,0.0433 -0.05854,0.0962 0,0.23388 -1.030908,1.50905 -1.151567,1.42442 -0.03381,-0.0238 -0.07523,0.004 -0.09204,0.0609 -0.01888,0.0643 -0.231226,0.1123 -0.555381,0.12559 -0.728132,0.0298 -1.042279,-0.15844 -1.444257,-0.86565 -0.143802,-0.25299 -0.184325,-0.40067 -0.256416,-0.9345 -0.06554,-0.48526 0.315829,-1.255 1.206178,-2.43457 0.06625,-0.0878 0.21969,-0.33776 0.340971,-0.55553 0.121283,-0.21776 0.248121,-0.39594 0.281862,-0.39594 0.03375,0 0.06135,-0.0408 0.06135,-0.0907 0,-0.0499 0.03424,-0.13792 0.07609,-0.1957 0.406099,-0.56066 0.625875,-0.88982 0.766326,-1.14775 0.09147,-0.16798 0.197986,-0.30542 0.236697,-0.30542 0.03871,0 0.07039,-0.042 0.07039,-0.0932 0,-0.0513 0.0431,-0.14474 0.09579,-0.20773 0.175462,-0.20982 0.330287,-0.43835 0.59293,-0.87522 0.143148,-0.2381 0.288141,-0.44596 0.322206,-0.4619 0.03406,-0.0159 0.06193,-0.0844 0.06193,-0.15221 0,-0.0678 0.03216,-0.12322 0.07147,-0.12322 0.03931,0 0.09163,-0.0685 0.11627,-0.1522 0.02465,-0.0837 0.164905,-0.3033 0.311696,-0.48797 0.146792,-0.18467 0.266895,-0.36487 0.266895,-0.40044 0,-0.0355 0.09404,-0.17802 0.20897,-0.31655 0.114933,-0.13854 0.209768,-0.27752 0.210739,-0.30885 0.0011,-0.0313 0.09035,-0.1698 0.198613,-0.30769 0.108263,-0.13791 0.34776,-0.50367 0.532217,-0.8128 0.184457,-0.30913 0.380379,-0.61378 0.435383,-0.67698 0.055,-0.0632 0.100164,-0.1415 0.10036,-0.17395 2.15e-4,-0.0325 0.09503,-0.1771 0.21074,-0.32141 0.115713,-0.14431 0.329349,-0.45742 0.474748,-0.6958 0.145398,-0.23839 0.317823,-0.49268 0.383166,-0.56511 0.06534,-0.0724 0.153286,-0.19378 0.195435,-0.26966 0.270773,-0.48751 0.494094,-0.83472 0.602642,-0.93696 0.06896,-0.065 0.125372,-0.17323 0.125372,-0.24064 0,-0.0674 0.05172,-0.14507 0.114949,-0.1726 0.06322,-0.0275 0.115749,-0.0948 0.116728,-0.14947 0.0015,-0.0859 0.183268,-0.35323 0.639183,-0.94018 0.06193,-0.0797 0.0987,-0.16074 0.08172,-0.18001 -0.01699,-0.0192 0.08073,-0.17333 0.217126,-0.34234 0.136403,-0.16902 0.248295,-0.32285 0.248651,-0.34185 0.0013,-0.0635 0.44734,-0.72694 0.684539,-1.01786 0.128926,-0.15812 0.232483,-0.31468 0.230127,-0.3479 -0.0045,-0.0633 0.06999,-0.1806 0.289051,-0.45507 0.07232,-0.0907 0.217637,-0.31286 0.322912,-0.49387 0.412567,-0.70938 0.718414,-1.17931 0.982457,-1.50952 0.07376,-0.0922 0.134108,-0.18763 0.134108,-0.21196 0,-0.0243 0.09483,-0.16504 0.210739,-0.31268 0.115908,-0.14764 0.210741,-0.29504 0.210741,-0.32755 0,-0.0325 0.04191,-0.11684 0.09313,-0.18742 0.365411,-0.50353 0.545476,-0.77099 0.670427,-0.99582 0.07906,-0.14227 0.17214,-0.29882 0.206832,-0.3479 0.03469,-0.0491 0.182478,-0.26537 0.328418,-0.48063 0.145939,-0.21526 0.320247,-0.46175 0.38735,-0.54773 0.117466,-0.15052 4.702929,-7.1279 6.270527,-9.54143 0.821728,-1.26516 1.122353,-1.89661 1.32504,-2.78322 0.154446,-0.67557 0.17133,-1.93743 0.03491,-2.60927 -0.148454,-0.73111 -0.71814,-1.98354 -1.155565,-2.54047 -0.529983,-0.67476 -1.395781,-1.3149 -2.167253,-1.60239 -0.787086,-0.2933 -2.021431,-0.33569 -2.796665,-0.096 -0.586516,0.18132 -1.365423,0.60938 -1.630366,0.89599 -0.107678,0.11648 -0.221208,0.21179 -0.252293,0.21179 -0.145636,0 -0.532296,0.45764 -1.028791,1.21765 -0.234375,0.35878 -0.454889,0.66537 -0.490027,0.68132 -0.03514,0.0159 -0.06389,0.0677 -0.06389,0.11492 0,0.0473 -0.0431,0.13706 -0.09579,0.19954 -0.05269,0.0625 -0.147518,0.20418 -0.210743,0.31489 -0.06322,0.11072 -0.188881,0.28927 -0.279244,0.39678 -0.09037,0.10751 -0.151638,0.20984 -0.136164,0.22741 0.01547,0.0176 -0.07099,0.1551 -0.192138,0.30563 -0.121148,0.15055 -0.232298,0.31063 -0.247001,0.35574 -0.01469,0.0451 -0.137166,0.23285 -0.272143,0.41718 -0.532278,0.72692 -0.635868,0.88559 -0.635868,0.97396 0,0.0505 -0.045,0.12314 -0.09999,0.1614 -0.055,0.0383 -0.178775,0.21681 -0.275065,0.3968 -0.09629,0.18 -0.24055,0.36704 -0.320582,0.41565 -0.08003,0.0486 -0.166901,0.1851 -0.193042,0.30331 -0.02614,0.11822 -0.07939,0.21493 -0.118322,0.21493 -0.03893,0 -0.09555,0.0687 -0.125801,0.15255 -0.08021,0.22241 -0.652022,1.06511 -0.722743,1.06511 -0.03315,0 -0.06027,0.0587 -0.06027,0.13047 0,0.0718 -0.02664,0.13046 -0.05921,0.13046 -0.03256,0 -0.124207,0.13698 -0.20365,0.30442 -0.07944,0.16742 -0.171174,0.30441 -0.203845,0.30441 -0.03267,0 -0.07992,0.0734 -0.105012,0.16309 -0.02508,0.0897 -0.167008,0.30497 -0.315384,0.47837 -0.148378,0.1734 -0.24672,0.31527 -0.218541,0.31527 0.02818,0 -0.06588,0.16634 -0.209021,0.36964 -0.143143,0.20331 -0.344468,0.51347 -0.44739,0.68924 -0.102922,0.17578 -0.219439,0.29693 -0.258927,0.26924 -0.03949,-0.0277 -0.05056,-0.0114 -0.02462,0.0363 0.02594,0.0477 -0.07084,0.21646 -0.215077,0.37513 -0.144237,0.15867 -0.247035,0.31643 -0.228436,0.35059 0.0186,0.0342 -0.06896,0.18415 -0.194566,0.33333 -0.125608,0.14917 -0.228377,0.31072 -0.228377,0.35899 0,0.0482 -0.03448,0.0878 -0.07664,0.0878 -0.04215,0 -0.07663,0.0449 -0.07663,0.0998 0,0.10038 -0.501139,0.84528 -0.648782,0.96435 -0.04357,0.0352 -0.04687,0.0645 -0.0073,0.0653 0.03956,7.3e-4 0.0032,0.0739 -0.08069,0.16271 -0.08394,0.0887 -0.26646,0.36272 -0.405604,0.60883 -0.139148,0.2461 -0.283882,0.44745 -0.321635,0.44745 -0.03775,0 -0.06865,0.0388 -0.06865,0.0862 0,0.086 -0.503954,0.87482 -0.611655,0.95749 -0.03117,0.0239 -0.110388,0.1609 -0.176065,0.30441 -0.06567,0.14351 -0.277395,0.46961 -0.47049,0.72465 -0.193096,0.25505 -0.351125,0.48988 -0.351176,0.52186 -5.2e-5,0.0319 -0.07764,0.16246 -0.172424,0.29 -0.382113,0.51414 -0.43567,0.59244 -0.56629,0.82784 -0.07475,0.1347 -0.214668,0.36233 -0.310936,0.50584 -0.178265,0.26575 -0.230071,0.34413 -0.63235,0.95674 -0.436843,0.66524 -0.502715,0.76088 -0.636057,0.92357 -0.07376,0.09 -0.134108,0.19704 -0.134108,0.23789 0,0.0409 -0.08621,0.17986 -0.191581,0.3089 -0.105372,0.12904 -0.191626,0.26196 -0.191677,0.29537 -5.2e-5,0.0334 -0.07764,0.16689 -0.172424,0.29661 -0.537234,0.73528 -0.670445,0.93369 -0.670445,0.99858 0,0.0396 -0.07857,0.16942 -0.174602,0.28852 -0.09603,0.1191 -0.258699,0.35353 -0.361483,0.52096 -0.102787,0.16743 -0.222506,0.35101 -0.26604,0.40795 -0.04353,0.057 -0.165367,0.24679 -0.270737,0.42191 -0.10537,0.17512 -0.250099,0.39064 -0.321618,0.47894 -0.07152,0.0883 -0.246267,0.35232 -0.388327,0.58671 -0.263513,0.43478 -0.374738,0.59726 -0.611976,0.89395 -0.07376,0.0922 -0.134108,0.19183 -0.134108,0.22129 0,0.0295 -0.128801,0.25452 -0.286227,0.50011 -0.157425,0.24559 -0.310449,0.48567 -0.340054,0.53351 -0.0296,0.0479 -0.193452,0.2669 -0.364106,0.4868 -0.170654,0.21991 -0.293982,0.41832 -0.274063,0.44093 0.01991,0.0226 -0.08793,0.19493 -0.239673,0.38295 -0.151737,0.18802 -0.268419,0.35513 -0.259291,0.37137 0.0091,0.0162 -0.0473,0.11408 -0.125381,0.21747 -0.07809,0.10338 -0.208185,0.30435 -0.289103,0.44659 -0.178062,0.31302 -0.26478,0.43955 -0.469081,0.68448 -0.08602,0.10313 -0.270661,0.39298 -0.410312,0.64412 -0.139648,0.25114 -0.284795,0.45662 -0.322549,0.45662 -0.03775,0 -0.06865,0.0584 -0.06865,0.12973 0,0.0713 -0.06897,0.17862 -0.153265,0.23836 -0.0843,0.0597 -0.153267,0.15793 -0.153267,0.21818 0,0.0602 -0.03448,0.10954 -0.07663,0.10954 -0.04215,0 -0.07663,0.0418 -0.07663,0.0928 0,0.10625 -0.354509,0.66541 -0.553349,0.87277 -0.07346,0.0766 -0.117305,0.15775 -0.09744,0.1803 0.01987,0.0225 -0.06697,0.1531 -0.192976,0.29011 -0.126003,0.13702 -0.229098,0.29112 -0.229098,0.34246 0,0.0514 -0.07759,0.19219 -0.172425,0.31303 -0.09483,0.12083 -0.2571,0.35526 -0.36059,0.52096 -0.103493,0.1657 -0.215981,0.34041 -0.249974,0.38824 -0.034,0.0479 -0.16366,0.24353 -0.288151,0.43488 -0.372498,0.57255 -0.489557,0.74435 -0.710579,1.04292 -0.115907,0.15657 -0.210742,0.31462 -0.210742,0.35122 0,0.0591 -0.499726,0.79969 -0.614509,0.91071 -0.02473,0.0239 -0.12556,0.19396 -0.224068,0.37787 -0.09851,0.18391 -0.258401,0.42438 -0.355317,0.53437 -0.09692,0.10999 -0.161418,0.21678 -0.143339,0.23731 0.01809,0.0205 -0.07022,0.1494 -0.196226,0.28642 -0.126003,0.13701 -0.229099,0.28454 -0.229099,0.32784 0,0.12847 -0.282017,0.49639 -0.334675,0.43662 -0.02667,-0.0303 -0.04849,-0.007 -0.04849,0.0508 0,0.13192 -1.007354,1.74965 -1.089498,1.74965 -0.033,0 -0.06036,0.0489 -0.06082,0.10872 -4.29e-4,0.0598 -0.121145,0.24141 -0.268215,0.4036 -0.14707,0.16219 -0.2674,0.34396 -0.2674,0.40393 0,0.06 -0.103454,0.23475 -0.229899,0.38838 -0.126444,0.15363 -0.2299,0.31432 -0.2299,0.3571 0,0.0428 -0.03448,0.0778 -0.07663,0.0778 -0.04215,0 -0.07663,0.0418 -0.07663,0.0928 0,0.18844 -0.685898,1.13368 -1.017927,1.40282 -0.430866,0.34926 -1.198029,0.36664 -1.69163,0.0383 -0.319026,-0.2122 -0.75455,-0.74942 -0.61004,-0.75248 0.03448,-7.3e-4 0.01678,-0.0343 -0.03934,-0.0747 -0.09571,-0.0688 -0.127995,-0.26328 -0.20399,-1.22855 -0.01695,-0.21527 -0.04675,-0.47275 -0.06621,-0.57219 -0.01946,-0.0994 -0.05857,-0.41255 -0.0869,-0.6958 -0.0779,-0.77893 -0.105473,-1.01242 -0.153235,-1.29779 -0.02402,-0.14351 -0.09575,-0.61318 -0.159408,-1.04371 -0.06365,-0.43053 -0.127778,-0.86106 -0.142493,-0.95673 -0.07577,-0.49261 -0.434793,-2.39125 -0.505953,-2.67566 -0.04504,-0.18003 -0.06269,-0.3626 -0.03921,-0.40571 0.02348,-0.0431 0.01109,-0.0915 -0.02752,-0.10755 -0.03861,-0.016 -0.08688,-0.14659 -0.107256,-0.2901 -0.02039,-0.14351 -0.127945,-0.62487 -0.239029,-1.06969 -0.111082,-0.44482 -0.183514,-0.84265 -0.160958,-0.88407 0.02255,-0.0414 0.0094,-0.0884 -0.02919,-0.10448 -0.03861,-0.016 -0.08755,-0.14659 -0.108747,-0.2901 -0.0212,-0.14351 -0.09192,-0.42782 -0.157155,-0.63178 -0.06524,-0.20397 -0.117741,-0.3801 -0.116683,-0.39139 0.0011,-0.0113 -0.01487,-0.0793 -0.03539,-0.151 -0.02053,-0.0718 -0.09877,-0.34573 -0.173874,-0.60883 -0.07511,-0.26309 -0.127998,-0.52729 -0.117537,-0.58708 0.01047,-0.0598 -0.01697,-0.10872 -0.06097,-0.10872 -0.044,0 -0.08051,-0.0685 -0.08115,-0.15221 -0.0013,-0.16667 -0.155595,-0.69714 -0.253046,-0.86976 -0.03376,-0.0598 -0.04006,-0.14786 -0.01401,-0.19569 0.02605,-0.0479 0.01494,-0.087 -0.0247,-0.087 -0.06765,0 -0.282866,-0.7497 -0.255916,-0.89151 0.0068,-0.0359 -0.02496,-0.0652 -0.07062,-0.0652 -0.04566,0 -0.06764,-0.0489 -0.04883,-0.10872 0.0188,-0.0598 -0.01998,-0.22614 -0.08619,-0.36965 -0.06621,-0.14351 -0.121825,-0.28177 -0.123591,-0.30723 -0.0017,-0.0255 -0.06064,-0.20159 -0.130825,-0.39139 -0.147952,-0.4001 -0.233004,-0.65699 -0.258223,-0.77996 -0.0098,-0.0479 -0.110666,-0.3086 -0.224121,-0.57948 -0.113457,-0.27087 -0.214292,-0.54485 -0.224078,-0.60883 -0.0098,-0.064 -0.09409,-0.28267 -0.187343,-0.48597 -0.09325,-0.2033 -0.154611,-0.36964 -0.136355,-0.36964 0.01826,0 -0.118981,-0.3329 -0.304974,-0.73976 -0.185993,-0.40686 -0.338171,-0.79825 -0.338171,-0.86975 0,-0.0715 -0.0303,-0.13 -0.06733,-0.13 -0.06822,0 -0.259919,-0.4578 -0.290704,-0.69423 -0.0092,-0.0709 -0.0512,-0.14191 -0.09328,-0.15783 -0.04207,-0.0159 -0.115595,-0.16339 -0.163382,-0.32774 -0.04779,-0.16433 -0.120732,-0.29879 -0.162097,-0.29879 -0.04137,0 -0.057,-0.0334 -0.03474,-0.0743 0.02226,-0.0409 -0.06192,-0.20448 -0.187057,-0.36356 -0.125144,-0.15909 -0.227534,-0.31874 -0.227534,-0.35478 0,-0.093 -1.046156,-1.54742 -1.337957,-1.86009 -0.596675,-0.63932 -1.598973,-1.44727 -1.938102,-1.56229 -0.09484,-0.0322 -0.172427,-0.0867 -0.172427,-0.12109 0,-0.0344 -0.07449,-0.0689 -0.165528,-0.0768 -0.09104,-0.007 -0.185874,-0.0455 -0.210739,-0.0838 -0.02487,-0.0383 -0.131426,-0.0798 -0.236797,-0.0924 -0.10537,-0.0125 -0.24331,-0.0466 -0.306531,-0.0757 -0.300002,-0.13788 -1.503357,-0.18876 -1.992457,-0.0842 -0.14752,0.0316 -0.388914,0.0771 -0.536432,0.10143 -0.147519,0.0243 -0.279064,0.0796 -0.292325,0.12299 -0.01326,0.0434 -0.0736,0.0573 -0.134108,0.031 -0.0605,-0.0263 -0.109998,-0.005 -0.109998,0.0484 0,0.0529 -0.02586,0.0883 -0.05747,0.0784 -0.03161,-0.01 -0.165179,0.0473 -0.296817,0.12699 -0.1316377,0.0797 -0.2609562,0.12035 -0.2873747,0.0904 -0.026414,-0.03 -0.048034,-0.006 -0.048034,0.0521 0,0.0586 -0.034483,0.0824 -0.07663,0.0528 -0.042147,-0.0296 -0.076638,-0.0161 -0.076638,0.0298 0,0.0459 -0.094832,0.12123 -0.2107403,0.16723 -0.2525003,0.1002 -1.2398082,0.80108 -1.1303376,0.80242 0.042148,4.9e-4 -0.013089,0.0889 -0.1227569,0.19652 -0.25868,0.25375 -0.4209676,0.6216 -0.4892016,1.10884 -0.074691,0.53334 -0.048663,0.85629 0.1524644,1.89171 0.083437,0.42953 0.1021344,0.51527 0.1945121,0.89184 0.052761,0.21507 0.1033145,0.44976 0.1123415,0.52151 0.016865,0.13412 0.079748,0.34718 0.1925016,0.65232 0.076695,0.20755 0.3714228,1.3248 0.4136636,1.5681 0.016372,0.0943 0.1403114,0.52366 0.2754316,0.95419 0.4086923,1.30221 0.6121216,2.04132 0.6121216,2.22398 0,0.0954 0.056112,0.31895 0.1246991,0.4968 0.1883191,0.48834 0.7221326,2.54124 0.6607986,2.54124 -0.02086,0 -0.0032,0.049 0.03932,0.10872 0.102255,0.1439 0.719217,2.93115 0.669164,3.02307 -0.02139,0.0393 -0.0058,0.0846 0.03447,0.10062 0.04035,0.016 0.08572,0.1676 0.100802,0.33678 0.01508,0.16918 0.04841,0.34613 0.07405,0.39323 0.03962,0.0727 0.09041,0.36329 0.173988,0.99518 0.0095,0.0718 0.03495,0.18918 0.05657,0.26093 0.106426,0.35322 0.223024,1.06004 0.182464,1.10607 -0.02525,0.0286 -0.01594,0.0948 0.02064,0.14707 0.06344,0.0906 0.25317,1.18212 0.23106,1.32936 -0.0058,0.0387 -0.0031,0.0898 0.0062,0.11374 0.0092,0.0239 0.02891,0.14133 0.04386,0.26093 0.03643,0.29139 0.108464,0.85339 0.150503,1.17417 0.100129,0.76403 0.197036,1.61988 0.231432,2.04392 0.02135,0.26311 0.05515,0.57621 0.07514,0.69581 0.183258,1.09676 0.185376,7.43719 0.0028,8.17569 -0.01774,0.0718 -0.05485,0.32617 -0.08245,0.56535 -0.0276,0.23918 -0.06352,0.52305 -0.07982,0.6308 -0.01631,0.10777 -0.04233,0.28389 -0.05786,0.39139 -0.01551,0.1075 -0.04949,0.27374 -0.07549,0.36941 -0.026,0.0957 -0.06254,0.2718 -0.08118,0.39139 -0.09587,0.61492 -0.368575,1.60414 -0.551477,2.00044 -0.05519,0.1196 -0.16017,0.41314 -0.233281,0.65232 -0.07311,0.23918 -0.178812,0.49666 -0.234893,0.57218 -0.05608,0.0756 -0.101962,0.20273 -0.101962,0.28268 0,0.08 -0.03448,0.14535 -0.07663,0.14535 -0.04215,0 -0.07255,0.0294 -0.06756,0.0653 0.0049,0.0359 6.43e-4,0.0946 -0.0096,0.13046 -0.01026,0.0359 -0.02337,0.0946 -0.02912,0.13048 -0.02718,0.16935 -0.224583,0.63057 -0.269898,0.63057 -0.02807,0 -0.05683,0.0874 -0.06393,0.1944 -0.0071,0.10693 -0.04892,0.20804 -0.09294,0.22469 -0.04403,0.0167 -0.08004,0.10032 -0.08004,0.18593 0,0.13443 -0.107257,0.46366 -0.383774,1.17798 -0.037038,0.0957 -0.089565,0.34028 -0.1167336,0.54359 -0.027168,0.20331 -0.083173,0.36964 -0.1244567,0.36964 -0.041287,0 -0.053168,0.0782 -0.026414,0.17396 0.026754,0.0957 0.019228,0.17395 -0.016739,0.17395 -0.035959,0 -0.071585,0.0685 -0.079184,0.1522 -0.052414,0.5778 -0.1810024,1.39809 -0.2420094,1.54382 -0.040054,0.0957 -0.092676,0.4675 -0.1169404,0.82627 -0.024265,0.35878 -0.064003,0.90672 -0.088305,1.21766 -0.067749,0.86676 -0.080376,3.55583 -0.018993,4.04436 0.030055,0.23918 0.074481,0.66971 0.098725,0.95673 0.02424,0.28702 0.057369,0.6197 0.073621,0.73929 0.016244,0.11959 0.05084,0.37556 0.076873,0.56883 0.026033,0.19325 0.067474,0.44766 0.092094,0.56534 0.024621,0.11767 0.062851,0.33137 0.08496,0.47488 0.022107,0.14351 0.068301,0.30128 0.1026582,0.3506 0.034353,0.0493 0.078649,0.191 0.098437,0.31482 0.019788,0.12384 0.070653,0.29875 0.1130477,0.38869 0.097647,0.20719 0.2694882,0.66128 0.4404062,1.16376 0.07322,0.21527 0.173745,0.4501 0.22339,0.52185 0.160479,0.23196 0.575504,1.04371 0.533615,1.04371 -0.02235,0 -0.0049,0.0489 0.0388,0.10872 0.09083,0.12432 0.528966,0.8126 0.922835,1.44971 0.147519,0.23863 0.294934,0.4357 0.327588,0.43794 0.06462,0.005 0.241298,0.44183 0.221218,0.54766 -0.0068,0.0359 0.02786,0.0653 0.07703,0.0653 0.04917,0 0.07047,0.0215 0.04731,0.0478 -0.02315,0.0262 -0.01268,0.19635 0.02327,0.37794 0.15208,0.76822 -0.538418,1.90331 -1.194531,1.96367 -0.04215,0.004 -0.112771,0.0328 -0.156939,0.0642 -0.08071,0.0575 -0.261248,0.0414 -0.684611,-0.0608 -0.3751,-0.0906 -0.6693627,-0.35351 -1.0742757,-0.95982 -0.4641351,-0.69498 -0.6796756,-0.99175 -0.6143794,-0.84591 0.026771,0.0598 0.01742,0.10872 -0.020769,0.10872 -0.038197,0 -0.1005789,0.0738 -0.1386294,0.16404 -0.038052,0.0902 -0.145761,0.27613 -0.2393553,0.41313 -0.2516678,0.36839 -0.6469897,0.98826 -0.8618948,1.35147 -0.1040054,0.17577 -0.2214109,0.29693 -0.2608986,0.26923 -0.039488,-0.0277 -0.050039,-0.0104 -0.023446,0.0384 0.026592,0.0489 -0.021436,0.16047 -0.1067155,0.24805 -0.085286,0.0876 -0.2279747,0.30651 -0.3170845,0.48646 -0.089241,0.18021 -0.1994966,0.30297 -0.2454517,0.27329 -0.045886,-0.0296 -0.058587,-0.0226 -0.028221,0.0155 0.030366,0.0381 -0.012745,0.17766 -0.095792,0.31004 -0.08305,0.13238 -0.1510011,0.28357 -0.1510011,0.33599 0,0.0524 -0.030746,0.0953 -0.068326,0.0953 -0.057538,0 -0.1596097,0.29043 -0.1528377,0.43488 0.00107,0.0239 -0.039027,0.16091 -0.089219,0.30441 -0.2451598,0.70098 -0.2266057,1.92349 0.040923,2.69625 0.1773721,0.51234 0.3584776,0.95608 0.4069818,0.99717 0.030214,0.0256 0.1517499,0.19393 0.2700802,0.37409 0.23833,0.36286 0.9878487,1.08683 1.5465397,1.49382 0.1264454,0.0921 0.2707197,0.20922 0.3206099,0.26024 0.049891,0.051 0.2309359,0.20791 0.4023233,0.34864 0.1713874,0.14072 0.3116128,0.28749 0.3116128,0.32615 0,0.0387 0.051724,0.0703 0.1149486,0.0703 0.063224,0 0.1149511,0.0391 0.1149511,0.087 0,0.0479 0.043104,0.0876 0.095792,0.0884 0.052681,9.3e-4 0.2125382,0.11819 0.3552303,0.26093 0.142696,0.14275 0.280633,0.25987 0.306534,0.2603 0.0259,0 0.176409,0.13986 0.334463,0.30989 0.158056,0.17001 0.287375,0.28111 0.287375,0.24686 0,-0.0342 0.06636,0.0246 0.14746,0.1307 0.08111,0.10614 0.175939,0.19206 0.210742,0.19095 0.131433,-0.005 0.547899,0.38021 0.505007,0.46614 -0.02465,0.0493 -0.01723,0.0615 0.0165,0.0269 0.05685,-0.0584 0.65945,0.41444 0.716805,0.56236 0.01405,0.0363 0.06578,0.0665 0.114951,0.0673 0.04917,9.2e-4 0.206155,0.11818 0.348847,0.26092 0.142693,0.14275 0.280631,0.25988 0.306532,0.2603 0.0259,0 0.176408,0.13986 0.334463,0.30989 0.158056,0.17002 0.287374,0.28111 0.287374,0.24686 0,-0.0342 0.06635,0.0246 0.147464,0.1307 0.0811,0.10614 0.169634,0.18689 0.196734,0.17946 0.05363,-0.0147 0.37108,0.22861 0.570102,0.43696 0.06855,0.0718 0.252721,0.22831 0.409286,0.3479 0.156564,0.1196 0.284897,0.2468 0.285185,0.28268 2.14e-4,0.0359 0.03908,0.0653 0.0862,0.0653 0.04713,0 0.200488,0.10763 0.340813,0.23918 0.140326,0.13156 0.394613,0.35661 0.565083,0.50011 0.170467,0.14351 0.38447,0.32942 0.475559,0.41314 0.09109,0.0837 0.186203,0.15225 0.211364,0.15231 0.02517,6e-5 0.149205,0.0962 0.275649,0.21373 0.333975,0.31034 0.464367,0.42256 1.195953,1.02922 0.362738,0.30081 0.776558,0.65358 0.919596,0.78393 0.143043,0.13035 0.295456,0.2689 0.338701,0.30789 0.04324,0.039 0.181182,0.14573 0.306532,0.23719 0.125348,0.0915 0.262391,0.19567 0.30454,0.2316 0.09862,0.084 0.725495,0.64821 0.901314,0.81117 0.07424,0.0689 0.162335,0.12511 0.195765,0.12511 0.03343,0 0.195458,0.14001 0.360061,0.31113 0.164605,0.17112 0.369631,0.35347 0.455617,0.40523 0.08598,0.0517 0.479542,0.37163 0.874574,0.71083 0.395029,0.33921 0.843334,0.71071 0.996229,0.82558 0.152894,0.11487 0.295233,0.23711 0.316306,0.27164 0.02107,0.0345 0.160177,0.15615 0.309114,0.27026 0.148938,0.11411 0.321362,0.25792 0.383165,0.31957 0.0618,0.0617 0.302035,0.26569 0.533851,0.45341 0.231813,0.18772 0.542177,0.44322 0.689696,0.56778 0.147518,0.12454 0.664792,0.55623 1.149495,0.95928 0.484704,0.40304 0.922931,0.77192 0.973837,0.81971 0.05091,0.0478 0.12958,0.0869 0.174829,0.0869 0.04525,0 0.100911,0.0551 0.12369,0.1225 0.02278,0.0674 0.142395,0.16996 0.265812,0.22799 0.123414,0.058 0.224392,0.13144 0.224392,0.16315 0,0.0318 0.102201,0.1262 0.22711,0.20994 0.124911,0.0838 0.28383,0.21664 0.35315,0.29532 0.06932,0.0787 0.224681,0.2045 0.345242,0.27963 0.12056,0.0751 0.567592,0.41054 0.993405,0.74539 0.425812,0.33485 0.840471,0.65145 0.921464,0.70352 0.08099,0.0521 0.210645,0.15981 0.288117,0.23938 0.07747,0.0795 0.163918,0.1185 0.192109,0.0865 0.02819,-0.032 0.05125,-0.0134 0.05125,0.0412 0,0.0547 0.129316,0.17403 0.287372,0.26522 0.158057,0.0912 0.577539,0.33315 0.932185,0.53772 0.662155,0.38193 1.382975,0.68069 1.65418,0.68558 0.0843,0.002 0.301234,-0.0735 0.482084,-0.1666 z"
       id="path3981"
       inkscape:connector-curvature="0" />
  </g>
</svg>
